<?xml version="1.0" encoding="utf-8"?>
<!-- Generator: Adobe Illustrator 16.0.0, SVG Export Plug-In . SVG Version: 6.00 Build 0)  -->
<!DOCTYPE svg PUBLIC "-//W3C//DTD SVG 1.1//EN" "http://www.w3.org/Graphics/SVG/1.1/DTD/svg11.dtd">
<svg version="1.1" xmlns="http://www.w3.org/2000/svg" xmlns:xlink="http://www.w3.org/1999/xlink" x="0px" y="0px"
	 width="775.461px" height="553.473px" viewBox="0 0 775.461 553.473" enable-background="new 0 0 775.461 553.473"
	 xml:space="preserve">
<g id="BG">
	<g>
		<defs>
			<rect id="SVGID_1_" x="-995.432" y="-195.979" width="911.032" height="911.032"/>
		</defs>
		<clipPath id="SVGID_2_">
			<use xlink:href="#SVGID_1_"  overflow="visible"/>
		</clipPath>
		<g clip-path="url(#SVGID_2_)">
			<defs>
				<rect id="SVGID_12_" x="-995.432" y="-195.979" width="911.032" height="911.032"/>
			</defs>
			<clipPath id="SVGID_4_">
				<use xlink:href="#SVGID_12_"  overflow="visible"/>
			</clipPath>
			<g opacity="0.8" clip-path="url(#SVGID_4_)">
				<g>
					<defs>
						<rect id="SVGID_14_" x="-2116.701" y="442.926" width="3153.578" height="314.608"/>
					</defs>
					<clipPath id="SVGID_5_">
						<use xlink:href="#SVGID_14_"  overflow="visible"/>
					</clipPath>
					<g clip-path="url(#SVGID_5_)">
						<defs>
							<rect id="SVGID_16_" x="-995.432" y="447.251" width="911.039" height="267.628"/>
						</defs>
						<clipPath id="SVGID_7_">
							<use xlink:href="#SVGID_16_"  overflow="visible"/>
						</clipPath>
						<g opacity="0.75" clip-path="url(#SVGID_7_)">
							<g>
								<defs>
									<rect id="SVGID_18_" x="-2116.701" y="442.926" width="3153.578" height="314.608"/>
								</defs>
								<clipPath id="SVGID_8_">
									<use xlink:href="#SVGID_18_"  overflow="visible"/>
								</clipPath>
								
									<linearGradient id="SVGID_10_" gradientUnits="userSpaceOnUse" x1="-3331.4277" y1="707.9756" x2="-3331.1465" y2="707.9756" gradientTransform="matrix(0 -981.8771 -981.8771 0 695045.8125 -3270333.5)">
									<stop  offset="0" style="stop-color:#FF8173"/>
									<stop  offset="1" style="stop-color:#C346DC"/>
									<stop  offset="1" style="stop-color:#C346DC"/>
								</linearGradient>
								<polyline clip-path="url(#SVGID_8_)" fill="url(#SVGID_10_)" points="192.072,718.98 -390.386,444.93 -389.547,443.149 
									192.91,717.2 								"/>
								
									<linearGradient id="SVGID_11_" gradientUnits="userSpaceOnUse" x1="-3331.4272" y1="708.9043" x2="-3331.1465" y2="708.9043" gradientTransform="matrix(0 -982.436 -982.436 0 696712.0625 -3272195)">
									<stop  offset="0" style="stop-color:#FF8173"/>
									<stop  offset="1" style="stop-color:#C346DC"/>
									<stop  offset="1" style="stop-color:#C346DC"/>
								</linearGradient>
								<polyline clip-path="url(#SVGID_8_)" fill="url(#SVGID_11_)" points="855.507,719.05 -339.168,444.999 -338.729,443.08 
									855.947,717.131 								"/>
								
									<linearGradient id="SVGID_13_" gradientUnits="userSpaceOnUse" x1="-3331.8232" y1="710.0049" x2="-3331.5425" y2="710.0049" gradientTransform="matrix(0 -632.301 -632.301 0 449345.5 -2106095)">
									<stop  offset="0" style="stop-color:#FF8173"/>
									<stop  offset="1" style="stop-color:#C346DC"/>
									<stop  offset="1" style="stop-color:#C346DC"/>
								</linearGradient>
								<polyline clip-path="url(#SVGID_8_)" fill="url(#SVGID_13_)" points="1036.584,620.578 -219.497,445.014 -219.225,443.064 
									1036.855,618.629 								"/>
							</g>
						</g>
					</g>
				</g>
			</g>
		</g>
		<g clip-path="url(#SVGID_2_)">
			<defs>
				<rect id="SVGID_391_" x="-995.432" y="-195.979" width="911.032" height="911.032"/>
			</defs>
			<clipPath id="SVGID_15_">
				<use xlink:href="#SVGID_391_"  overflow="visible"/>
			</clipPath>
			<g opacity="0.15" clip-path="url(#SVGID_15_)">
				<g>
					<defs>
						<rect id="SVGID_393_" x="-549.492" y="-53.158" width="465.093" height="252.862"/>
					</defs>
					<clipPath id="SVGID_17_">
						<use xlink:href="#SVGID_393_"  overflow="visible"/>
					</clipPath>
					<g clip-path="url(#SVGID_17_)">
						<defs>
							<path id="SVGID_395_" d="M-139.064-28.347c-15.887,9.463-73.074,85.966-73.074,85.966s-61.026,10.245-90.672,21.631
								s-33.641,27.413-33.641,27.413s-20.615,14.499-38.744,18.959c-18.129,4.462-26.386,0.95-41.072,0.961
								c-14.688,0.01-29.733,23.88-29.733,23.88l-65.809,29.24l-37.685,20.001c0,0,40.209-12.471,53.414-10.624
								c13.203,1.846,76.992-19.394,91.679-19.403c14.688-0.012,20.77-11.3,39.04-8.447c18.271,2.853,39.053,6.24,59.109,3.181
								c20.059-3.059,55.496-14.346,73.054-21.624c17.557-7.277,41.189-22.162,41.189-22.162l36.696-29.4l47.019-19.687
								l23.895-29.912v-94.782C-105.996-44.791-126.098-36.07-139.064-28.347"/>
						</defs>
						<clipPath id="SVGID_19_">
							<use xlink:href="#SVGID_395_"  overflow="visible"/>
						</clipPath>
						
							<linearGradient id="SVGID_20_" gradientUnits="userSpaceOnUse" x1="-3331.1284" y1="706.8604" x2="-3330.8472" y2="706.8604" gradientTransform="matrix(1228.9617 -604.3241 -604.3241 -1228.9617 4520474 -1144200.25)">
							<stop  offset="0" style="stop-color:#FFFBB9"/>
							<stop  offset="1" style="stop-color:#231F20"/>
						</linearGradient>
						<polygon clip-path="url(#SVGID_19_)" fill="url(#SVGID_20_)" points="-649.623,-3.921 -174.963,-237.328 15.73,150.468 
							-458.931,383.875 						"/>
					</g>
				</g>
			</g>
		</g>
		<g clip-path="url(#SVGID_2_)">
			<defs>
				<rect id="SVGID_428_" x="-655.448" y="212.339" width="911.032" height="911.032"/>
			</defs>
			<clipPath id="SVGID_21_">
				<use xlink:href="#SVGID_428_"  overflow="visible"/>
			</clipPath>
		</g>
	</g>
</g>
<g id="PLANE">
	<g>
		<g>
			<defs>
				<path id="SVGID_435_" d="M572.16,317.904l19.916,11.404l16.994,9.764L730.6,235.689c2.062-1.699,22.319-16.869,18.047-19.293
					l-54.596-23.416c-18.906-10.391-85.663-12.394-107.236-11.394c0,0-130.078,6.741-182.95-12.218l-232.18-72.536L572.16,317.904z"
					/>
			</defs>
			<clipPath id="SVGID_22_">
				<use xlink:href="#SVGID_435_"  overflow="visible"/>
			</clipPath>
			
				<linearGradient id="SVGID_23_" gradientUnits="userSpaceOnUse" x1="-3335.3584" y1="706.29" x2="-3334.3582" y2="706.29" gradientTransform="matrix(-381.452 -191.3984 191.3984 -381.452 -1406841.25 -368668.2813)">
				<stop  offset="0" style="stop-color:#F2746D"/>
				<stop  offset="1" style="stop-color:#FFFBB9"/>
			</linearGradient>
			<polygon clip-path="url(#SVGID_22_)" fill="url(#SVGID_23_)" points="850.019,145.555 288.588,-136.151 74.585,290.351 
				636.016,572.056 			"/>
		</g>
		<g>
			<defs>
				<path id="SVGID_438_" d="M609.042,339.064l94.044-80.025c-5.702,3.656-25.491,12.476-31.832,14.29
					c-28.454,8.143-44.927,7.27-80.736,1.389c-26.978-4.43-49.756-8.39-70.354-19.065c-21.932-11.366-56.004-26.649-78.528-37.843
					c-48.185-23.944-163.831-82.045-184.802-94.429l-15.11-5.718L609.042,339.064z"/>
			</defs>
			<clipPath id="SVGID_24_">
				<use xlink:href="#SVGID_438_"  overflow="visible"/>
			</clipPath>
			
				<linearGradient id="SVGID_25_" gradientUnits="userSpaceOnUse" x1="-3333.7588" y1="704.6553" x2="-3332.7588" y2="704.6553" gradientTransform="matrix(-441.2274 47.1284 -47.1284 -441.2274 -1437039.375 468231.8438)">
				<stop  offset="0" style="stop-color:#F2746D"/>
				<stop  offset="1" style="stop-color:#E54E85"/>
			</linearGradient>
			<polygon clip-path="url(#SVGID_24_)" fill="url(#SVGID_25_)" points="697.882,68.939 218.342,120.16 246.928,387.788 
				726.468,336.567 			"/>
		</g>
		<g>
			<defs>
				<polygon id="SVGID_441_" points="572.16,317.904 594.56,327.877 740.031,212.746 723.621,205.645 				"/>
			</defs>
			<clipPath id="SVGID_26_">
				<use xlink:href="#SVGID_441_"  overflow="visible"/>
			</clipPath>
			
				<linearGradient id="SVGID_27_" gradientUnits="userSpaceOnUse" x1="-3337.2412" y1="699.6611" x2="-3336.2412" y2="699.6611" gradientTransform="matrix(-177.0825 18.9146 -18.9146 -177.0825 -576988.375 187277.5)">
				<stop  offset="0" style="stop-color:#E54E85"/>
				<stop  offset="1" style="stop-color:#895ACC"/>
			</linearGradient>
			<polygon clip-path="url(#SVGID_26_)" fill="url(#SVGID_27_)" points="738.137,187.916 559.251,207.023 574.054,345.605 
				752.939,326.498 			"/>
		</g>
		<g>
			<defs>
				<rect id="SVGID_444_" x="-2144.955" y="-1160.826" width="3240" height="3239.998"/>
			</defs>
			<clipPath id="SVGID_28_">
				<use xlink:href="#SVGID_444_"  overflow="visible"/>
			</clipPath>
			<g opacity="0.75" clip-path="url(#SVGID_28_)">
				<g>
					<defs>
						<rect id="SVGID_446_" x="572.945" y="276.363" width="86.729" height="51.57"/>
					</defs>
					<clipPath id="SVGID_29_">
						<use xlink:href="#SVGID_446_"  overflow="visible"/>
					</clipPath>
					<g clip-path="url(#SVGID_29_)">
						<defs>
							<path id="SVGID_448_" d="M624.46,279.083c12.322,0.739,22.914-0.023,35.219-2.724l-65.165,51.573l-15.268-6.797l-6.298-3.795
								L624.46,279.083z"/>
						</defs>
						<clipPath id="SVGID_30_">
							<use xlink:href="#SVGID_448_"  overflow="visible"/>
						</clipPath>
						
							<linearGradient id="SVGID_31_" gradientUnits="userSpaceOnUse" x1="-3342.8408" y1="691.5928" x2="-3341.8408" y2="691.5928" gradientTransform="matrix(-90.0798 9.6216 -9.6216 -90.0798 -293806.3125 94759.2656)">
							<stop  offset="0" style="stop-color:#F7958D"/>
							<stop  offset="1" style="stop-color:#EB618D"/>
						</linearGradient>
						<polygon clip-path="url(#SVGID_30_)" fill="url(#SVGID_31_)" points="658.7,267.201 567.502,276.941 573.926,337.092 
							665.125,327.352 						"/>
					</g>
				</g>
			</g>
		</g>
		<g>
			<defs>
				<path id="SVGID_451_" d="M235.056,276.736c25.231,57.985,0.259,199.213,0.259,199.213c0.387,13.107,31.196,30.867,50.104,41.261
					l20.121-10.033c10.716-6.628,28.723-13.936,31.32-15.341l205.258-108.18l-17.6-9.252l-20.671-10.902L91.911,146.501
					L235.056,276.736z"/>
			</defs>
			<clipPath id="SVGID_33_">
				<use xlink:href="#SVGID_451_"  overflow="visible"/>
			</clipPath>
			
				<linearGradient id="SVGID_34_" gradientUnits="userSpaceOnUse" x1="-3327.0864" y1="707.7051" x2="-3326.0864" y2="707.7051" gradientTransform="matrix(249.4793 333.447 -333.447 249.4793 1066169.375 932955.6875)">
				<stop  offset="0" style="stop-color:#FFFBB9"/>
				<stop  offset="1" style="stop-color:#F2746D"/>
			</linearGradient>
			<polygon clip-path="url(#SVGID_33_)" fill="url(#SVGID_34_)" points="-85.908,279.542 253.482,733.162 719.936,384.169 
				380.545,-69.451 			"/>
		</g>
		<g>
			<defs>
				<path id="SVGID_454_" d="M240.013,443.46c-0.278,3.114-2.6,19.698-4.776,32.841c0.815,15.107,39.695,34.717,50.182,40.909
					c2.077-0.527,159.417-81.918,190.262-98.313C389.546,456.734,268.457,506.187,240.013,443.46"/>
			</defs>
			<clipPath id="SVGID_36_">
				<use xlink:href="#SVGID_454_"  overflow="visible"/>
			</clipPath>
			
				<linearGradient id="SVGID_37_" gradientUnits="userSpaceOnUse" x1="-3335.6475" y1="701.9531" x2="-3334.6479" y2="701.9531" gradientTransform="matrix(-243.8061 26.0414 -26.0414 -243.8061 -794491.75 258460.3281)">
				<stop  offset="0" style="stop-color:#F2746D"/>
				<stop  offset="1" style="stop-color:#E54E85"/>
			</linearGradient>
			<polygon clip-path="url(#SVGID_36_)" fill="url(#SVGID_37_)" points="472.968,393.504 224.854,420.005 237.949,542.603 
				486.063,516.101 			"/>
		</g>
		<g>
			<defs>
				<polygon id="SVGID_457_" points="257.063,500.417 276.658,512.205 524.518,374.404 498.599,366.527 				"/>
			</defs>
			<clipPath id="SVGID_39_">
				<use xlink:href="#SVGID_457_"  overflow="visible"/>
			</clipPath>
			
				<linearGradient id="SVGID_40_" gradientUnits="userSpaceOnUse" x1="-3330.2778" y1="696.7666" x2="-3329.2781" y2="696.7666" gradientTransform="matrix(-109.9506 116.8125 -116.8125 -109.9506 -284352.4063 466033.4063)">
				<stop  offset="0" style="stop-color:#E54E85"/>
				<stop  offset="1" style="stop-color:#895ACC"/>
			</linearGradient>
			<polygon clip-path="url(#SVGID_39_)" fill="url(#SVGID_40_)" points="382.704,233.045 184.357,443.771 398.876,645.688 
				597.223,434.962 			"/>
		</g>
		<g>
			<defs>
				<rect id="SVGID_460_" x="-2144.955" y="-1160.826" width="3240" height="3239.998"/>
			</defs>
			<clipPath id="SVGID_42_">
				<use xlink:href="#SVGID_460_"  overflow="visible"/>
			</clipPath>
			<g opacity="0.75" clip-path="url(#SVGID_42_)">
				<g>
					<defs>
						<rect id="SVGID_462_" x="257.734" y="458.644" width="116.141" height="53.7"/>
					</defs>
					<clipPath id="SVGID_43_">
						<use xlink:href="#SVGID_462_"  overflow="visible"/>
					</clipPath>
					<g clip-path="url(#SVGID_43_)">
						<defs>
							<path id="SVGID_464_" d="M307.781,472.787c20.05-1.433,42.72-6.77,66.095-14.146l-96.597,53.704
								c-2.139-1.204-4.489-2.541-6.955-3.985l-6.314-3.798c-2.089-1.295-4.197-2.644-6.273-4.034L307.781,472.787z"/>
						</defs>
						<clipPath id="SVGID_45_">
							<use xlink:href="#SVGID_464_"  overflow="visible"/>
						</clipPath>
						
							<linearGradient id="SVGID_46_" gradientUnits="userSpaceOnUse" x1="-3340.0562" y1="695.6084" x2="-3339.0557" y2="695.6084" gradientTransform="matrix(-119.2522 12.7376 -12.7376 -119.2522 -389072.5625 125976.2813)">
							<stop  offset="0" style="stop-color:#F7958D"/>
							<stop  offset="1" style="stop-color:#EB618D"/>
						</linearGradient>
						<polygon clip-path="url(#SVGID_45_)" fill="url(#SVGID_46_)" points="372.565,446.376 252.065,459.247 259.047,524.61 
							379.547,511.739 						"/>
					</g>
				</g>
			</g>
		</g>
		<g>
			<defs>
				<path id="SVGID_467_" d="M54.386,99.765c-10.77,7.172-0.976,3.241,8.902,12.759l24.774,32.998
					c29.166,22.246,41.42,30.02,55.043,37.762l376.815,207.692l99.058-65.961L241.724,117.663
					c-67.116-21.828-78.109-21.644-142.53-41.192L54.386,99.765z"/>
			</defs>
			<clipPath id="SVGID_48_">
				<use xlink:href="#SVGID_467_"  overflow="visible"/>
			</clipPath>
			
				<linearGradient id="SVGID_49_" gradientUnits="userSpaceOnUse" x1="-3334.6299" y1="706.0283" x2="-3333.6296" y2="706.0283" gradientTransform="matrix(-459.2188 -140.8219 140.8219 -459.2188 -1630205.5 -145068.4063)">
				<stop  offset="0" style="stop-color:#F2746D"/>
				<stop  offset="1" style="stop-color:#FFFBB9"/>
			</linearGradient>
			<polygon clip-path="url(#SVGID_48_)" fill="url(#SVGID_49_)" points="707.133,103.504 93.07,-84.801 -44.539,363.943 
				569.523,552.248 			"/>
		</g>
		<g>
			<defs>
				<path id="SVGID_470_" d="M62.597,81.627c-10.77,7.172-19.778,12.52-9.04,36.049l21.221,18.982
					c0.152,0.147,13.133,8.718,13.285,8.863c-0.726-6.777-1.494-20.404,5.697-30.084c8.924-12.011,32.047-21.229,48.766-27.006
					c-1.238-0.379-2.453-0.791-3.693-1.168l-30.358-9.213c-6.607-2.005-13.514-2.984-20.116-2.982
					C78.371,75.068,69.082,77.309,62.597,81.627"/>
			</defs>
			<clipPath id="SVGID_51_">
				<use xlink:href="#SVGID_470_"  overflow="visible"/>
			</clipPath>
			
				<linearGradient id="SVGID_52_" gradientUnits="userSpaceOnUse" x1="-3342.1509" y1="688.7275" x2="-3341.1509" y2="688.7275" gradientTransform="matrix(-80.4585 16.8195 -16.8195 -80.4585 -257185.0313 111728.7344)">
				<stop  offset="0" style="stop-color:#E54E85"/>
				<stop  offset="1" style="stop-color:#895ACC"/>
			</linearGradient>
			<polygon clip-path="url(#SVGID_51_)" fill="url(#SVGID_52_)" points="138.35,55.096 28.706,78.017 46.992,165.491 
				156.637,142.571 			"/>
		</g>
		<g>
			<defs>
				<path id="SVGID_473_" d="M114.87,167.62l333.137,188.276l98.468-74.951l-60.002-29.121
					c-33.586,43.375-178.533-1.347-227.945-22.201c-54.657-23.071-120.704-56.973-170.465-84.102l-3.052-2.359L114.87,167.62z"/>
			</defs>
			<clipPath id="SVGID_54_">
				<use xlink:href="#SVGID_473_"  overflow="visible"/>
			</clipPath>
			
				<linearGradient id="SVGID_55_" gradientUnits="userSpaceOnUse" x1="-3335.1382" y1="706.2744" x2="-3334.1377" y2="706.2744" gradientTransform="matrix(-404.6986 -182.2892 182.2892 -404.6986 -1477967.125 -321796.1563)">
				<stop  offset="0" style="stop-color:#F2746D"/>
				<stop  offset="1" style="stop-color:#E54E85"/>
			</linearGradient>
			<polygon clip-path="url(#SVGID_54_)" fill="url(#SVGID_55_)" points="626.135,179.043 162.846,-29.637 5.351,320.015 
				468.641,528.695 			"/>
		</g>
		<g>
			<defs>
				<polygon id="SVGID_476_" points="598.532,363.824 644.4,390.252 689.058,355.432 637.742,333.255 				"/>
			</defs>
			<clipPath id="SVGID_57_">
				<use xlink:href="#SVGID_476_"  overflow="visible"/>
			</clipPath>
			
				<linearGradient id="SVGID_58_" gradientUnits="userSpaceOnUse" x1="-3351.3916" y1="679.2705" x2="-3350.3916" y2="679.2705" gradientTransform="matrix(-51.5072 5.5016 -5.5016 -51.5072 -168195.9375 53782.3516)">
				<stop  offset="0" style="stop-color:#E54E85"/>
				<stop  offset="1" style="stop-color:#895ACC"/>
			</linearGradient>
			<polygon clip-path="url(#SVGID_57_)" fill="url(#SVGID_58_)" points="688.037,323.695 592.513,333.898 599.553,399.813 
				695.077,389.609 			"/>
		</g>
		<g>
			<defs>
				<polygon id="SVGID_479_" points="495.573,319.021 621.922,386.63 721.732,308.837 545.234,280.301 				"/>
			</defs>
			<clipPath id="SVGID_60_">
				<use xlink:href="#SVGID_479_"  overflow="visible"/>
			</clipPath>
			
				<linearGradient id="SVGID_61_" gradientUnits="userSpaceOnUse" x1="-3336.0078" y1="701.417" x2="-3335.0078" y2="701.417" gradientTransform="matrix(-224.6852 23.9991 -23.9991 -224.6852 -731995.25 237980.2969)">
				<stop  offset="0" style="stop-color:#FFFBB9"/>
				<stop  offset="1" style="stop-color:#F2746D"/>
			</linearGradient>
			<polygon clip-path="url(#SVGID_60_)" fill="url(#SVGID_61_)" points="719.182,256.417 484.344,281.5 498.124,410.514 
				732.962,385.431 			"/>
		</g>
		<g>
			<defs>
				<path id="SVGID_482_" d="M641.977,346.322c-30.526,7.987-73.955,1.47-103.998-12.851c-4.144-1.976-38.517-17.415-35.166-20.094
					l-7.24,5.644l126.009,67.834l100.151-78.019l-26.821-4.291C695.008,320.579,658.982,341.873,641.977,346.322"/>
			</defs>
			<clipPath id="SVGID_63_">
				<use xlink:href="#SVGID_482_"  overflow="visible"/>
			</clipPath>
			
				<linearGradient id="SVGID_64_" gradientUnits="userSpaceOnUse" x1="-3336.0073" y1="701.4297" x2="-3335.0073" y2="701.4297" gradientTransform="matrix(-224.6859 23.9992 -23.9992 -224.6859 -731995.8125 237996.1406)">
				<stop  offset="0" style="stop-color:#F2746D"/>
				<stop  offset="1" style="stop-color:#E54E85"/>
			</linearGradient>
			<polygon clip-path="url(#SVGID_63_)" fill="url(#SVGID_64_)" points="719.182,280.662 486.879,305.475 498.123,410.74 
				730.426,385.928 			"/>
		</g>
		<g>
			<defs>
				<polygon id="SVGID_485_" points="535.273,401.488 578.809,436.061 629.693,400.045 581.825,374.951 				"/>
			</defs>
			<clipPath id="SVGID_66_">
				<use xlink:href="#SVGID_485_"  overflow="visible"/>
			</clipPath>
			
				<linearGradient id="SVGID_67_" gradientUnits="userSpaceOnUse" x1="-3333.1016" y1="676.4209" x2="-3332.1016" y2="676.4209" gradientTransform="matrix(-45.3612 35.2338 -35.2338 -45.3612 -126748.6172 148503.6875)">
				<stop  offset="0" style="stop-color:#E54E85"/>
				<stop  offset="1" style="stop-color:#895ACC"/>
			</linearGradient>
			<polygon clip-path="url(#SVGID_66_)" fill="url(#SVGID_67_)" points="594.163,329.209 505.669,397.946 570.803,481.803 
				659.298,413.065 			"/>
		</g>
		<g>
			<defs>
				<polygon id="SVGID_488_" points="442.477,349.031 502.203,467.55 621.581,386.855 498.256,317.234 				"/>
			</defs>
			<clipPath id="SVGID_69_">
				<use xlink:href="#SVGID_488_"  overflow="visible"/>
			</clipPath>
			
				<linearGradient id="SVGID_70_" gradientUnits="userSpaceOnUse" x1="-3337.3687" y1="699.4443" x2="-3336.3691" y2="699.4443" gradientTransform="matrix(-173.0894 18.488 -18.488 -173.0894 -564111 183150.3125)">
				<stop  offset="0" style="stop-color:#FFFBB9"/>
				<stop  offset="1" style="stop-color:#F2746D"/>
			</linearGradient>
			<polygon clip-path="url(#SVGID_69_)" fill="url(#SVGID_70_)" points="619.561,298.319 426.603,318.93 444.497,486.465 
				637.455,465.854 			"/>
		</g>
		<g>
			<defs>
				<path id="SVGID_491_" d="M439.297,350.844l62.906,116.706l119.378-80.694l-13.429-7.58c-2.728,4.438-8.383,7.986-15.445,10.549
					c-14.003,5.082-31.298,6.187-49.891,3.99c-41.354-4.887-74.168-24.156-100.34-44.783L439.297,350.844z"/>
			</defs>
			<clipPath id="SVGID_72_">
				<use xlink:href="#SVGID_491_"  overflow="visible"/>
			</clipPath>
			
				<linearGradient id="SVGID_73_" gradientUnits="userSpaceOnUse" x1="-3337.2612" y1="699.5908" x2="-3336.2607" y2="699.5908" gradientTransform="matrix(-176.4255 18.8444 -18.8444 -176.4255 -574971.875 186712.6875)">
				<stop  offset="0" style="stop-color:#F2746D"/>
				<stop  offset="1" style="stop-color:#E54E85"/>
			</linearGradient>
			<polygon clip-path="url(#SVGID_72_)" fill="url(#SVGID_73_)" points="619.524,329.78 426.78,350.368 441.354,486.801 
				634.098,466.213 			"/>
		</g>
		<g>
			<defs>
				<path id="SVGID_494_" d="M155.117,118.305c-6.572,1.196-11.754,3.758-15.277,7.13c-4.357,2.936-7.148,6.755-7.594,11.173
					c-0.366,3.633,0.453,7.861,3.463,11.734c1.395,1.792,3.878,3.924,6.816,5.465c2.158,1.131,4.561,1.943,6.957,2.067
					c3.969,0.206,6.422-1.698,7.982-3.402c0.989-1.075,6.115-5.931,12.27-11.309c6.841-5.022,13.1-9.279,14.52-10.128
					c2.219-1.329,4.883-3.308,3.816-5.77c-1.043-2.408-5.668-4.667-9.252-5.818c-4.502-1.447-9.34-2.011-13.896-2.011
					C161.388,117.437,158.023,117.775,155.117,118.305"/>
			</defs>
			<clipPath id="SVGID_75_">
				<use xlink:href="#SVGID_494_"  overflow="visible"/>
			</clipPath>
			
				<linearGradient id="SVGID_76_" gradientUnits="userSpaceOnUse" x1="-3349.5127" y1="681.9756" x2="-3348.5127" y2="681.9756" gradientTransform="matrix(-56.8707 6.0745 -6.0745 -56.8707 -186157.3438 59264.7578)">
				<stop  offset="0" style="stop-color:#E54E85"/>
				<stop  offset="1" style="stop-color:#895ACC"/>
			</linearGradient>
			<polygon clip-path="url(#SVGID_75_)" fill="url(#SVGID_76_)" points="188.491,111.391 127.799,117.873 132.525,162.127 
				193.218,155.645 			"/>
		</g>
	</g>
</g>
</svg>
