<svg id="visual" viewBox="0 0 675 900" width="675" height="900" xmlns="http://www.w3.org/2000/svg" xmlns:xlink="http://www.w3.org/1999/xlink" version="1.1"><rect x="0" y="0" width="675" height="900" fill="#3B82F6"></rect><path d="M0 680L16 664.8C32 649.7 64 619.3 96.2 589C128.3 558.7 160.7 528.3 192.8 543.2C225 558 257 618 289.2 614.8C321.3 611.7 353.7 545.3 385.8 508.3C418 471.3 450 463.7 482.2 493C514.3 522.3 546.7 588.7 578.8 598C611 607.3 643 559.7 659 535.8L675 512L675 0L659 0C643 0 611 0 578.8 0C546.7 0 514.3 0 482.2 0C450 0 418 0 385.8 0C353.7 0 321.3 0 289.2 0C257 0 225 0 192.8 0C160.7 0 128.3 0 96.2 0C64 0 32 0 16 0L0 0Z" fill="#21fff6"></path><path d="M0 575L16 555.8C32 536.7 64 498.3 96.2 495.8C128.3 493.3 160.7 526.7 192.8 547.8C225 569 257 578 289.2 567.2C321.3 556.3 353.7 525.7 385.8 518.8C418 512 450 529 482.2 516C514.3 503 546.7 460 578.8 437C611 414 643 411 659 409.5L675 408L675 0L659 0C643 0 611 0 578.8 0C546.7 0 514.3 0 482.2 0C450 0 418 0 385.8 0C353.7 0 321.3 0 289.2 0C257 0 225 0 192.8 0C160.7 0 128.3 0 96.2 0C64 0 32 0 16 0L0 0Z" fill="#00e8ff"></path><path d="M0 360L16 377.8C32 395.7 64 431.3 96.2 432.2C128.3 433 160.7 399 192.8 402.2C225 405.3 257 445.7 289.2 462.3C321.3 479 353.7 472 385.8 455.5C418 439 450 413 482.2 411.5C514.3 410 546.7 433 578.8 424.8C611 416.7 643 377.3 659 357.7L675 338L675 0L659 0C643 0 611 0 578.8 0C546.7 0 514.3 0 482.2 0C450 0 418 0 385.8 0C353.7 0 321.3 0 289.2 0C257 0 225 0 192.8 0C160.7 0 128.3 0 96.2 0C64 0 32 0 16 0L0 0Z" fill="#00cfff"></path><path d="M0 308L16 320.7C32 333.3 64 358.7 96.2 372.3C128.3 386 160.7 388 192.8 373C225 358 257 326 289.2 310.8C321.3 295.7 353.7 297.3 385.8 297.2C418 297 450 295 482.2 302C514.3 309 546.7 325 578.8 346.7C611 368.3 643 395.7 659 409.3L675 423L675 0L659 0C643 0 611 0 578.8 0C546.7 0 514.3 0 482.2 0C450 0 418 0 385.8 0C353.7 0 321.3 0 289.2 0C257 0 225 0 192.8 0C160.7 0 128.3 0 96.2 0C64 0 32 0 16 0L0 0Z" fill="#00b4fa"></path><path d="M0 291L16 279.3C32 267.7 64 244.3 96.2 241.3C128.3 238.3 160.7 255.7 192.8 254.8C225 254 257 235 289.2 245.8C321.3 256.7 353.7 297.3 385.8 312.2C418 327 450 316 482.2 314.2C514.3 312.3 546.7 319.7 578.8 320.5C611 321.3 643 315.7 659 312.8L675 310L675 0L659 0C643 0 611 0 578.8 0C546.7 0 514.3 0 482.2 0C450 0 418 0 385.8 0C353.7 0 321.3 0 289.2 0C257 0 225 0 192.8 0C160.7 0 128.3 0 96.2 0C64 0 32 0 16 0L0 0Z" fill="#0098ec"></path><path d="M0 180L16 187.2C32 194.3 64 208.7 96.2 223.8C128.3 239 160.7 255 192.8 249.7C225 244.3 257 217.7 289.2 200.5C321.3 183.3 353.7 175.7 385.8 178.7C418 181.7 450 195.3 482.2 215.8C514.3 236.3 546.7 263.7 578.8 260.7C611 257.7 643 224.3 659 207.7L675 191L675 0L659 0C643 0 611 0 578.8 0C546.7 0 514.3 0 482.2 0C450 0 418 0 385.8 0C353.7 0 321.3 0 289.2 0C257 0 225 0 192.8 0C160.7 0 128.3 0 96.2 0C64 0 32 0 16 0L0 0Z" fill="#007cdb"></path><path d="M0 183L16 171.3C32 159.7 64 136.3 96.2 135.5C128.3 134.7 160.7 156.3 192.8 170.5C225 184.7 257 191.3 289.2 190.2C321.3 189 353.7 180 385.8 169C418 158 450 145 482.2 144.3C514.3 143.7 546.7 155.3 578.8 157.2C611 159 643 151 659 147L675 143L675 0L659 0C643 0 611 0 578.8 0C546.7 0 514.3 0 482.2 0C450 0 418 0 385.8 0C353.7 0 321.3 0 289.2 0C257 0 225 0 192.8 0C160.7 0 128.3 0 96.2 0C64 0 32 0 16 0L0 0Z" fill="#005ec7"></path><path d="M0 64L16 66.2C32 68.3 64 72.7 96.2 78.7C128.3 84.7 160.7 92.3 192.8 101.5C225 110.7 257 121.3 289.2 126.8C321.3 132.3 353.7 132.7 385.8 121.2C418 109.7 450 86.3 482.2 74.2C514.3 62 546.7 61 578.8 65.7C611 70.3 643 80.7 659 85.8L675 91L675 0L659 0C643 0 611 0 578.8 0C546.7 0 514.3 0 482.2 0C450 0 418 0 385.8 0C353.7 0 321.3 0 289.2 0C257 0 225 0 192.8 0C160.7 0 128.3 0 96.2 0C64 0 32 0 16 0L0 0Z" fill="#1e40af"></path></svg>