<svg id="visual" viewBox="0 0 675 900" width="675" height="900" xmlns="http://www.w3.org/2000/svg" xmlns:xlink="http://www.w3.org/1999/xlink" version="1.1"><rect x="0" y="0" width="675" height="900" fill="#100748"></rect><path d="M0 151L22.5 172C45 193 90 235 135 239.7C180 244.3 225 211.7 270 185.5C315 159.3 360 139.7 405 151.7C450 163.7 495 207.3 540 219.8C585 232.3 630 213.7 652.5 204.3L675 195L675 901L652.5 901C630 901 585 901 540 901C495 901 450 901 405 901C360 901 315 901 270 901C225 901 180 901 135 901C90 901 45 901 22.5 901L0 901Z" fill="#ea6181"></path><path d="M0 341L22.5 340.3C45 339.7 90 338.3 135 338.5C180 338.7 225 340.3 270 324C315 307.7 360 273.3 405 268.8C450 264.3 495 289.7 540 313.2C585 336.7 630 358.3 652.5 369.2L675 380L675 901L652.5 901C630 901 585 901 540 901C495 901 450 901 405 901C360 901 315 901 270 901C225 901 180 901 135 901C90 901 45 901 22.5 901L0 901Z" fill="#d24881"></path><path d="M0 341L22.5 358.8C45 376.7 90 412.3 135 435C180 457.7 225 467.3 270 471.8C315 476.3 360 475.7 405 471.3C450 467 495 459 540 464C585 469 630 487 652.5 496L675 505L675 901L652.5 901C630 901 585 901 540 901C495 901 450 901 405 901C360 901 315 901 270 901C225 901 180 901 135 901C90 901 45 901 22.5 901L0 901Z" fill="#b73282"></path><path d="M0 473L22.5 485C45 497 90 521 135 540C180 559 225 573 270 578.3C315 583.7 360 580.3 405 581C450 581.7 495 586.3 540 576.3C585 566.3 630 541.7 652.5 529.3L675 517L675 901L652.5 901C630 901 585 901 540 901C495 901 450 901 405 901C360 901 315 901 270 901C225 901 180 901 135 901C90 901 45 901 22.5 901L0 901Z" fill="#962183"></path><path d="M0 721L22.5 719.2C45 717.3 90 713.7 135 706.3C180 699 225 688 270 668.5C315 649 360 621 405 621.3C450 621.7 495 650.3 540 671C585 691.7 630 704.3 652.5 710.7L675 717L675 901L652.5 901C630 901 585 901 540 901C495 901 450 901 405 901C360 901 315 901 270 901C225 901 180 901 135 901C90 901 45 901 22.5 901L0 901Z" fill="#711784"></path><path d="M0 796L22.5 799.2C45 802.3 90 808.7 135 804C180 799.3 225 783.7 270 766.5C315 749.3 360 730.7 405 726C450 721.3 495 730.7 540 745.3C585 760 630 780 652.5 790L675 800L675 901L652.5 901C630 901 585 901 540 901C495 901 450 901 405 901C360 901 315 901 270 901C225 901 180 901 135 901C90 901 45 901 22.5 901L0 901Z" fill="#411582"></path></svg>