<svg id="visual" viewBox="0 0 900 300" width="900" height="300" xmlns="http://www.w3.org/2000/svg" xmlns:xlink="http://www.w3.org/1999/xlink" version="1.1"><rect x="0" y="0" width="900" height="300" fill="#312E81"></rect><path d="M0 208L18.8 210.5C37.7 213 75.3 218 112.8 223.3C150.3 228.7 187.7 234.3 225.2 230.2C262.7 226 300.3 212 337.8 203.3C375.3 194.7 412.7 191.3 450.2 193C487.7 194.7 525.3 201.3 562.8 205.2C600.3 209 637.7 210 675.2 215.3C712.7 220.7 750.3 230.3 787.8 228.5C825.3 226.7 862.7 213.3 881.3 206.7L900 200L900 0L881.3 0C862.7 0 825.3 0 787.8 0C750.3 0 712.7 0 675.2 0C637.7 0 600.3 0 562.8 0C525.3 0 487.7 0 450.2 0C412.7 0 375.3 0 337.8 0C300.3 0 262.7 0 225.2 0C187.7 0 150.3 0 112.8 0C75.3 0 37.7 0 18.8 0L0 0Z" fill="#715df2"></path><path d="M0 175L18.8 180.2C37.7 185.3 75.3 195.7 112.8 199.3C150.3 203 187.7 200 225.2 195.8C262.7 191.7 300.3 186.3 337.8 181.7C375.3 177 412.7 173 450.2 174.8C487.7 176.7 525.3 184.3 562.8 191.8C600.3 199.3 637.7 206.7 675.2 208.8C712.7 211 750.3 208 787.8 200.7C825.3 193.3 862.7 181.7 881.3 175.8L900 170L900 0L881.3 0C862.7 0 825.3 0 787.8 0C750.3 0 712.7 0 675.2 0C637.7 0 600.3 0 562.8 0C525.3 0 487.7 0 450.2 0C412.7 0 375.3 0 337.8 0C300.3 0 262.7 0 225.2 0C187.7 0 150.3 0 112.8 0C75.3 0 37.7 0 18.8 0L0 0Z" fill="#8357e6"></path><path d="M0 179L18.8 177.3C37.7 175.7 75.3 172.3 112.8 169.3C150.3 166.3 187.7 163.7 225.2 163.8C262.7 164 300.3 167 337.8 170.3C375.3 173.7 412.7 177.3 450.2 177.5C487.7 177.7 525.3 174.3 562.8 176.8C600.3 179.3 637.7 187.7 675.2 192.3C712.7 197 750.3 198 787.8 197.2C825.3 196.3 862.7 193.7 881.3 192.3L900 191L900 0L881.3 0C862.7 0 825.3 0 787.8 0C750.3 0 712.7 0 675.2 0C637.7 0 600.3 0 562.8 0C525.3 0 487.7 0 450.2 0C412.7 0 375.3 0 337.8 0C300.3 0 262.7 0 225.2 0C187.7 0 150.3 0 112.8 0C75.3 0 37.7 0 18.8 0L0 0Z" fill="#9150db"></path><path d="M0 138L18.8 137.7C37.7 137.3 75.3 136.7 112.8 139.2C150.3 141.7 187.7 147.3 225.2 148.8C262.7 150.3 300.3 147.7 337.8 148.2C375.3 148.7 412.7 152.3 450.2 154.7C487.7 157 525.3 158 562.8 157.3C600.3 156.7 637.7 154.3 675.2 157.3C712.7 160.3 750.3 168.7 787.8 166C825.3 163.3 862.7 149.7 881.3 142.8L900 136L900 0L881.3 0C862.7 0 825.3 0 787.8 0C750.3 0 712.7 0 675.2 0C637.7 0 600.3 0 562.8 0C525.3 0 487.7 0 450.2 0C412.7 0 375.3 0 337.8 0C300.3 0 262.7 0 225.2 0C187.7 0 150.3 0 112.8 0C75.3 0 37.7 0 18.8 0L0 0Z" fill="#9b4acf"></path><path d="M0 124L18.8 129.3C37.7 134.7 75.3 145.3 112.8 149.3C150.3 153.3 187.7 150.7 225.2 145.3C262.7 140 300.3 132 337.8 132.5C375.3 133 412.7 142 450.2 145.5C487.7 149 525.3 147 562.8 143.3C600.3 139.7 637.7 134.3 675.2 135.7C712.7 137 750.3 145 787.8 144.7C825.3 144.3 862.7 135.7 881.3 131.3L900 127L900 0L881.3 0C862.7 0 825.3 0 787.8 0C750.3 0 712.7 0 675.2 0C637.7 0 600.3 0 562.8 0C525.3 0 487.7 0 450.2 0C412.7 0 375.3 0 337.8 0C300.3 0 262.7 0 225.2 0C187.7 0 150.3 0 112.8 0C75.3 0 37.7 0 18.8 0L0 0Z" fill="#a445c4"></path><path d="M0 121L18.8 120.8C37.7 120.7 75.3 120.3 112.8 121.8C150.3 123.3 187.7 126.7 225.2 125.8C262.7 125 300.3 120 337.8 119.7C375.3 119.3 412.7 123.7 450.2 122.8C487.7 122 525.3 116 562.8 115.7C600.3 115.3 637.7 120.7 675.2 119.5C712.7 118.3 750.3 110.7 787.8 109.7C825.3 108.7 862.7 114.3 881.3 117.2L900 120L900 0L881.3 0C862.7 0 825.3 0 787.8 0C750.3 0 712.7 0 675.2 0C637.7 0 600.3 0 562.8 0C525.3 0 487.7 0 450.2 0C412.7 0 375.3 0 337.8 0C300.3 0 262.7 0 225.2 0C187.7 0 150.3 0 112.8 0C75.3 0 37.7 0 18.8 0L0 0Z" fill="#aa40b8"></path><path d="M0 102L18.8 99.3C37.7 96.7 75.3 91.3 112.8 93.7C150.3 96 187.7 106 225.2 109.3C262.7 112.7 300.3 109.3 337.8 104.7C375.3 100 412.7 94 450.2 90.3C487.7 86.7 525.3 85.3 562.8 84.8C600.3 84.3 637.7 84.7 675.2 87.8C712.7 91 750.3 97 787.8 101C825.3 105 862.7 107 881.3 108L900 109L900 0L881.3 0C862.7 0 825.3 0 787.8 0C750.3 0 712.7 0 675.2 0C637.7 0 600.3 0 562.8 0C525.3 0 487.7 0 450.2 0C412.7 0 375.3 0 337.8 0C300.3 0 262.7 0 225.2 0C187.7 0 150.3 0 112.8 0C75.3 0 37.7 0 18.8 0L0 0Z" fill="#af3cad"></path><path d="M0 74L18.8 76.2C37.7 78.3 75.3 82.7 112.8 82.2C150.3 81.7 187.7 76.3 225.2 76.8C262.7 77.3 300.3 83.7 337.8 84C375.3 84.3 412.7 78.7 450.2 74.3C487.7 70 525.3 67 562.8 68.3C600.3 69.7 637.7 75.3 675.2 77.3C712.7 79.3 750.3 77.7 787.8 75C825.3 72.3 862.7 68.7 881.3 66.8L900 65L900 0L881.3 0C862.7 0 825.3 0 787.8 0C750.3 0 712.7 0 675.2 0C637.7 0 600.3 0 562.8 0C525.3 0 487.7 0 450.2 0C412.7 0 375.3 0 337.8 0C300.3 0 262.7 0 225.2 0C187.7 0 150.3 0 112.8 0C75.3 0 37.7 0 18.8 0L0 0Z" fill="#b239a2"></path><path d="M0 54L18.8 55.2C37.7 56.3 75.3 58.7 112.8 60.5C150.3 62.3 187.7 63.7 225.2 65C262.7 66.3 300.3 67.7 337.8 67.2C375.3 66.7 412.7 64.3 450.2 63.7C487.7 63 525.3 64 562.8 63C600.3 62 637.7 59 675.2 55.7C712.7 52.3 750.3 48.7 787.8 47.7C825.3 46.7 862.7 48.3 881.3 49.2L900 50L900 0L881.3 0C862.7 0 825.3 0 787.8 0C750.3 0 712.7 0 675.2 0C637.7 0 600.3 0 562.8 0C525.3 0 487.7 0 450.2 0C412.7 0 375.3 0 337.8 0C300.3 0 262.7 0 225.2 0C187.7 0 150.3 0 112.8 0C75.3 0 37.7 0 18.8 0L0 0Z" fill="#b33698"></path><path d="M0 29L18.8 31.7C37.7 34.3 75.3 39.7 112.8 42.3C150.3 45 187.7 45 225.2 46.3C262.7 47.7 300.3 50.3 337.8 49.7C375.3 49 412.7 45 450.2 44.3C487.7 43.7 525.3 46.3 562.8 46.7C600.3 47 637.7 45 675.2 44.8C712.7 44.7 750.3 46.3 787.8 45.2C825.3 44 862.7 40 881.3 38L900 36L900 0L881.3 0C862.7 0 825.3 0 787.8 0C750.3 0 712.7 0 675.2 0C637.7 0 600.3 0 562.8 0C525.3 0 487.7 0 450.2 0C412.7 0 375.3 0 337.8 0C300.3 0 262.7 0 225.2 0C187.7 0 150.3 0 112.8 0C75.3 0 37.7 0 18.8 0L0 0Z" fill="#b4358e"></path><path d="M0 24L18.8 22.5C37.7 21 75.3 18 112.8 16.3C150.3 14.7 187.7 14.3 225.2 13.8C262.7 13.3 300.3 12.7 337.8 14C375.3 15.3 412.7 18.7 450.2 20.3C487.7 22 525.3 22 562.8 20.7C600.3 19.3 637.7 16.7 675.2 15.8C712.7 15 750.3 16 787.8 16.3C825.3 16.7 862.7 16.3 881.3 16.2L900 16L900 0L881.3 0C862.7 0 825.3 0 787.8 0C750.3 0 712.7 0 675.2 0C637.7 0 600.3 0 562.8 0C525.3 0 487.7 0 450.2 0C412.7 0 375.3 0 337.8 0C300.3 0 262.7 0 225.2 0C187.7 0 150.3 0 112.8 0C75.3 0 37.7 0 18.8 0L0 0Z" fill="#b43484"></path></svg>