<svg id="visual" viewBox="0 0 675 900" width="675" height="900" xmlns="http://www.w3.org/2000/svg" xmlns:xlink="http://www.w3.org/1999/xlink" version="1.1"><rect x="0" y="0" width="675" height="900" fill="#831843"></rect><path d="M0 96L22.5 113.5C45 131 90 166 135 166.5C180 167 225 133 270 134.2C315 135.3 360 171.7 405 176.8C450 182 495 156 540 144.3C585 132.7 630 135.3 652.5 136.7L675 138L675 901L652.5 901C630 901 585 901 540 901C495 901 450 901 405 901C360 901 315 901 270 901C225 901 180 901 135 901C90 901 45 901 22.5 901L0 901Z" fill="#f0c29c"></path><path d="M0 255L22.5 250.5C45 246 90 237 135 229.3C180 221.7 225 215.3 270 211.3C315 207.3 360 205.7 405 206.2C450 206.7 495 209.3 540 221.2C585 233 630 254 652.5 264.5L675 275L675 901L652.5 901C630 901 585 901 540 901C495 901 450 901 405 901C360 901 315 901 270 901C225 901 180 901 135 901C90 901 45 901 22.5 901L0 901Z" fill="#eead8e"></path><path d="M0 287L22.5 295.7C45 304.3 90 321.7 135 326.3C180 331 225 323 270 308.8C315 294.7 360 274.3 405 275.2C450 276 495 298 540 297.2C585 296.3 630 272.7 652.5 260.8L675 249L675 901L652.5 901C630 901 585 901 540 901C495 901 450 901 405 901C360 901 315 901 270 901C225 901 180 901 135 901C90 901 45 901 22.5 901L0 901Z" fill="#eb9786"></path><path d="M0 424L22.5 412.5C45 401 90 378 135 378C180 378 225 401 270 405.8C315 410.7 360 397.3 405 380.7C450 364 495 344 540 335.2C585 326.3 630 328.7 652.5 329.8L675 331L675 901L652.5 901C630 901 585 901 540 901C495 901 450 901 405 901C360 901 315 901 270 901C225 901 180 901 135 901C90 901 45 901 22.5 901L0 901Z" fill="#e58283"></path><path d="M0 450L22.5 455.8C45 461.7 90 473.3 135 476.5C180 479.7 225 474.3 270 460.3C315 446.3 360 423.7 405 416.7C450 409.7 495 418.3 540 434.3C585 450.3 630 473.7 652.5 485.3L675 497L675 901L652.5 901C630 901 585 901 540 901C495 901 450 901 405 901C360 901 315 901 270 901C225 901 180 901 135 901C90 901 45 901 22.5 901L0 901Z" fill="#db6d85"></path><path d="M0 546L22.5 541.8C45 537.7 90 529.3 135 518.2C180 507 225 493 270 486.8C315 480.7 360 482.3 405 486.3C450 490.3 495 496.7 540 508.5C585 520.3 630 537.7 652.5 546.3L675 555L675 901L652.5 901C630 901 585 901 540 901C495 901 450 901 405 901C360 901 315 901 270 901C225 901 180 901 135 901C90 901 45 901 22.5 901L0 901Z" fill="#cc5a8c"></path><path d="M0 632L22.5 619.7C45 607.3 90 582.7 135 576.8C180 571 225 584 270 585.5C315 587 360 577 405 579.8C450 582.7 495 598.3 540 603C585 607.7 630 601.3 652.5 598.2L675 595L675 901L652.5 901C630 901 585 901 540 901C495 901 450 901 405 901C360 901 315 901 270 901C225 901 180 901 135 901C90 901 45 901 22.5 901L0 901Z" fill="#b64b95"></path><path d="M0 701L22.5 691.3C45 681.7 90 662.3 135 653.5C180 644.7 225 646.3 270 648.8C315 651.3 360 654.7 405 660.7C450 666.7 495 675.3 540 683C585 690.7 630 697.3 652.5 700.7L675 704L675 901L652.5 901C630 901 585 901 540 901C495 901 450 901 405 901C360 901 315 901 270 901C225 901 180 901 135 901C90 901 45 901 22.5 901L0 901Z" fill="#98429f"></path><path d="M0 761L22.5 754C45 747 90 733 135 731.8C180 730.7 225 742.3 270 745C315 747.7 360 741.3 405 737C450 732.7 495 730.3 540 734.5C585 738.7 630 749.3 652.5 754.7L675 760L675 901L652.5 901C630 901 585 901 540 901C495 901 450 901 405 901C360 901 315 901 270 901C225 901 180 901 135 901C90 901 45 901 22.5 901L0 901Z" fill="#6e3fa8"></path><path d="M0 798L22.5 796.3C45 794.7 90 791.3 135 796.2C180 801 225 814 270 821C315 828 360 829 405 827C450 825 495 820 540 820C585 820 630 825 652.5 827.5L675 830L675 901L652.5 901C630 901 585 901 540 901C495 901 450 901 405 901C360 901 315 901 270 901C225 901 180 901 135 901C90 901 45 901 22.5 901L0 901Z" fill="#1e40af"></path></svg>