<svg id="visual" viewBox="0 0 675 900" width="675" height="900" xmlns="http://www.w3.org/2000/svg" xmlns:xlink="http://www.w3.org/1999/xlink" version="1.1"><rect x="0" y="0" width="675" height="900" fill="#831843"></rect><path d="M0 700L22.5 721.2C45 742.3 90 784.7 135 788C180 791.3 225 755.7 270 757.8C315 760 360 800 405 804.7C450 809.3 495 778.7 540 779.8C585 781 630 814 652.5 830.5L675 847L675 0L652.5 0C630 0 585 0 540 0C495 0 450 0 405 0C360 0 315 0 270 0C225 0 180 0 135 0C90 0 45 0 22.5 0L0 0Z" fill="#ffc978"></path><path d="M0 589L22.5 610.7C45 632.3 90 675.7 135 695.5C180 715.3 225 711.7 270 704.7C315 697.7 360 687.3 405 670.8C450 654.3 495 631.7 540 637.8C585 644 630 679 652.5 696.5L675 714L675 0L652.5 0C630 0 585 0 540 0C495 0 450 0 405 0C360 0 315 0 270 0C225 0 180 0 135 0C90 0 45 0 22.5 0L0 0Z" fill="#fdb170"></path><path d="M0 697L22.5 683.5C45 670 90 643 135 614C180 585 225 554 270 561.7C315 569.3 360 615.7 405 638C450 660.3 495 658.7 540 650.7C585 642.7 630 628.3 652.5 621.2L675 614L675 0L652.5 0C630 0 585 0 540 0C495 0 450 0 405 0C360 0 315 0 270 0C225 0 180 0 135 0C90 0 45 0 22.5 0L0 0Z" fill="#f8996c"></path><path d="M0 601L22.5 588.5C45 576 90 551 135 541.3C180 531.7 225 537.3 270 547.8C315 558.3 360 573.7 405 587C450 600.3 495 611.7 540 604C585 596.3 630 569.7 652.5 556.3L675 543L675 0L652.5 0C630 0 585 0 540 0C495 0 450 0 405 0C360 0 315 0 270 0C225 0 180 0 135 0C90 0 45 0 22.5 0L0 0Z" fill="#f0826d"></path><path d="M0 518L22.5 520.5C45 523 90 528 135 530.7C180 533.3 225 533.7 270 533.7C315 533.7 360 533.3 405 524.8C450 516.3 495 499.7 540 501.5C585 503.3 630 523.7 652.5 533.8L675 544L675 0L652.5 0C630 0 585 0 540 0C495 0 450 0 405 0C360 0 315 0 270 0C225 0 180 0 135 0C90 0 45 0 22.5 0L0 0Z" fill="#e46d70"></path><path d="M0 449L22.5 432.8C45 416.7 90 384.3 135 380.8C180 377.3 225 402.7 270 399.5C315 396.3 360 364.7 405 371.3C450 378 495 423 540 431.8C585 440.7 630 413.3 652.5 399.7L675 386L675 0L652.5 0C630 0 585 0 540 0C495 0 450 0 405 0C360 0 315 0 270 0C225 0 180 0 135 0C90 0 45 0 22.5 0L0 0Z" fill="#d35975"></path><path d="M0 277L22.5 294.5C45 312 90 347 135 357C180 367 225 352 270 336.2C315 320.3 360 303.7 405 303.2C450 302.7 495 318.3 540 321.3C585 324.3 630 314.7 652.5 309.8L675 305L675 0L652.5 0C630 0 585 0 540 0C495 0 450 0 405 0C360 0 315 0 270 0C225 0 180 0 135 0C90 0 45 0 22.5 0L0 0Z" fill="#be497a"></path><path d="M0 330L22.5 311C45 292 90 254 135 244C180 234 225 252 270 268C315 284 360 298 405 297.7C450 297.3 495 282.7 540 283.8C585 285 630 302 652.5 310.5L675 319L675 0L652.5 0C630 0 585 0 540 0C495 0 450 0 405 0C360 0 315 0 270 0C225 0 180 0 135 0C90 0 45 0 22.5 0L0 0Z" fill="#a43c7f"></path><path d="M0 187L22.5 188.7C45 190.3 90 193.7 135 194.3C180 195 225 193 270 192.2C315 191.3 360 191.7 405 184.3C450 177 495 162 540 158C585 154 630 161 652.5 164.5L675 168L675 0L652.5 0C630 0 585 0 540 0C495 0 450 0 405 0C360 0 315 0 270 0C225 0 180 0 135 0C90 0 45 0 22.5 0L0 0Z" fill="#853583"></path><path d="M0 172L22.5 158.7C45 145.3 90 118.7 135 105.5C180 92.3 225 92.7 270 102C315 111.3 360 129.7 405 142.3C450 155 495 162 540 169.2C585 176.3 630 183.7 652.5 187.3L675 191L675 0L652.5 0C630 0 585 0 540 0C495 0 450 0 405 0C360 0 315 0 270 0C225 0 180 0 135 0C90 0 45 0 22.5 0L0 0Z" fill="#613184"></path><path d="M0 108L22.5 107.5C45 107 90 106 135 96C180 86 225 67 270 55.3C315 43.7 360 39.3 405 45.3C450 51.3 495 67.7 540 68.8C585 70 630 56 652.5 49L675 42L675 0L652.5 0C630 0 585 0 540 0C495 0 450 0 405 0C360 0 315 0 270 0C225 0 180 0 135 0C90 0 45 0 22.5 0L0 0Z" fill="#312e81"></path></svg>