<svg id="visual" viewBox="0 0 900 300" width="900" height="300" xmlns="http://www.w3.org/2000/svg" xmlns:xlink="http://www.w3.org/1999/xlink" version="1.1"><rect x="0" y="0" width="900" height="300" fill="#831843"></rect><path d="M0 228L30 221.2C60 214.3 120 200.7 180 204C240 207.3 300 227.7 360 238.5C420 249.3 480 250.7 540 246.3C600 242 660 232 720 226.3C780 220.7 840 219.3 870 218.7L900 218L900 0L870 0C840 0 780 0 720 0C660 0 600 0 540 0C480 0 420 0 360 0C300 0 240 0 180 0C120 0 60 0 30 0L0 0Z" fill="#ffc978"></path><path d="M0 228L30 215.5C60 203 120 178 180 178C240 178 300 203 360 211.7C420 220.3 480 212.7 540 211.8C600 211 660 217 720 208.5C780 200 840 177 870 165.5L900 154L900 0L870 0C840 0 780 0 720 0C660 0 600 0 540 0C480 0 420 0 360 0C300 0 240 0 180 0C120 0 60 0 30 0L0 0Z" fill="#fdb170"></path><path d="M0 182L30 185.2C60 188.3 120 194.7 180 193.8C240 193 300 185 360 176.2C420 167.3 480 157.7 540 151C600 144.3 660 140.7 720 141.8C780 143 840 149 870 152L900 155L900 0L870 0C840 0 780 0 720 0C660 0 600 0 540 0C480 0 420 0 360 0C300 0 240 0 180 0C120 0 60 0 30 0L0 0Z" fill="#f8996c"></path><path d="M0 127L30 134.7C60 142.3 120 157.7 180 160C240 162.3 300 151.7 360 153.2C420 154.7 480 168.3 540 168.7C600 169 660 156 720 147.3C780 138.7 840 134.3 870 132.2L900 130L900 0L870 0C840 0 780 0 720 0C660 0 600 0 540 0C480 0 420 0 360 0C300 0 240 0 180 0C120 0 60 0 30 0L0 0Z" fill="#f0826d"></path><path d="M0 128L30 127.5C60 127 120 126 180 127.7C240 129.3 300 133.7 360 140.5C420 147.3 480 156.7 540 157.5C600 158.3 660 150.7 720 150.3C780 150 840 157 870 160.5L900 164L900 0L870 0C840 0 780 0 720 0C660 0 600 0 540 0C480 0 420 0 360 0C300 0 240 0 180 0C120 0 60 0 30 0L0 0Z" fill="#e46d70"></path><path d="M0 134L30 130.5C60 127 120 120 180 116.8C240 113.7 300 114.3 360 113.3C420 112.3 480 109.7 540 109.2C600 108.7 660 110.3 720 109.2C780 108 840 104 870 102L900 100L900 0L870 0C840 0 780 0 720 0C660 0 600 0 540 0C480 0 420 0 360 0C300 0 240 0 180 0C120 0 60 0 30 0L0 0Z" fill="#d35975"></path><path d="M0 90L30 95.5C60 101 120 112 180 110.2C240 108.3 300 93.7 360 92.3C420 91 480 103 540 106.7C600 110.3 660 105.7 720 101.5C780 97.3 840 93.7 870 91.8L900 90L900 0L870 0C840 0 780 0 720 0C660 0 600 0 540 0C480 0 420 0 360 0C300 0 240 0 180 0C120 0 60 0 30 0L0 0Z" fill="#be497a"></path><path d="M0 102L30 98.8C60 95.7 120 89.3 180 83.2C240 77 300 71 360 72C420 73 480 81 540 83.8C600 86.7 660 84.3 720 84.2C780 84 840 86 870 87L900 88L900 0L870 0C840 0 780 0 720 0C660 0 600 0 540 0C480 0 420 0 360 0C300 0 240 0 180 0C120 0 60 0 30 0L0 0Z" fill="#a43c7f"></path><path d="M0 46L30 48.5C60 51 120 56 180 58.2C240 60.3 300 59.7 360 62.3C420 65 480 71 540 72.8C600 74.7 660 72.3 720 72.2C780 72 840 74 870 75L900 76L900 0L870 0C840 0 780 0 720 0C660 0 600 0 540 0C480 0 420 0 360 0C300 0 240 0 180 0C120 0 60 0 30 0L0 0Z" fill="#853583"></path><path d="M0 42L30 44.2C60 46.3 120 50.7 180 52.7C240 54.7 300 54.3 360 51.7C420 49 480 44 540 39.7C600 35.3 660 31.7 720 34.7C780 37.7 840 47.3 870 52.2L900 57L900 0L870 0C840 0 780 0 720 0C660 0 600 0 540 0C480 0 420 0 360 0C300 0 240 0 180 0C120 0 60 0 30 0L0 0Z" fill="#613184"></path><path d="M0 30L30 29.7C60 29.3 120 28.7 180 27.8C240 27 300 26 360 23.8C420 21.7 480 18.3 540 19.7C600 21 660 27 720 27.8C780 28.7 840 24.3 870 22.2L900 20L900 0L870 0C840 0 780 0 720 0C660 0 600 0 540 0C480 0 420 0 360 0C300 0 240 0 180 0C120 0 60 0 30 0L0 0Z" fill="#312e81"></path></svg>