<svg id="visual" viewBox="0 0 900 300" width="900" height="300" xmlns="http://www.w3.org/2000/svg" xmlns:xlink="http://www.w3.org/1999/xlink" version="1.1"><rect x="0" y="0" width="900" height="300" fill="#3B82F6"></rect><path d="M0 227L18.8 226.5C37.7 226 75.3 225 112.8 224.8C150.3 224.7 187.7 225.3 225.2 224C262.7 222.7 300.3 219.3 337.8 211.8C375.3 204.3 412.7 192.7 450.2 196.7C487.7 200.7 525.3 220.3 562.8 226.5C600.3 232.7 637.7 225.3 675.2 214.5C712.7 203.7 750.3 189.3 787.8 193C825.3 196.7 862.7 218.3 881.3 229.2L900 240L900 0L881.3 0C862.7 0 825.3 0 787.8 0C750.3 0 712.7 0 675.2 0C637.7 0 600.3 0 562.8 0C525.3 0 487.7 0 450.2 0C412.7 0 375.3 0 337.8 0C300.3 0 262.7 0 225.2 0C187.7 0 150.3 0 112.8 0C75.3 0 37.7 0 18.8 0L0 0Z" fill="#21fff6"></path><path d="M0 164L18.8 169.5C37.7 175 75.3 186 112.8 190C150.3 194 187.7 191 225.2 182.2C262.7 173.3 300.3 158.7 337.8 160C375.3 161.3 412.7 178.7 450.2 182C487.7 185.3 525.3 174.7 562.8 168.3C600.3 162 637.7 160 675.2 163.7C712.7 167.3 750.3 176.7 787.8 178C825.3 179.3 862.7 172.7 881.3 169.3L900 166L900 0L881.3 0C862.7 0 825.3 0 787.8 0C750.3 0 712.7 0 675.2 0C637.7 0 600.3 0 562.8 0C525.3 0 487.7 0 450.2 0C412.7 0 375.3 0 337.8 0C300.3 0 262.7 0 225.2 0C187.7 0 150.3 0 112.8 0C75.3 0 37.7 0 18.8 0L0 0Z" fill="#00deff"></path><path d="M0 148L18.8 147.3C37.7 146.7 75.3 145.3 112.8 141.8C150.3 138.3 187.7 132.7 225.2 128.8C262.7 125 300.3 123 337.8 124.8C375.3 126.7 412.7 132.3 450.2 130.5C487.7 128.7 525.3 119.3 562.8 122.5C600.3 125.7 637.7 141.3 675.2 141.5C712.7 141.7 750.3 126.3 787.8 120.8C825.3 115.3 862.7 119.7 881.3 121.8L900 124L900 0L881.3 0C862.7 0 825.3 0 787.8 0C750.3 0 712.7 0 675.2 0C637.7 0 600.3 0 562.8 0C525.3 0 487.7 0 450.2 0C412.7 0 375.3 0 337.8 0C300.3 0 262.7 0 225.2 0C187.7 0 150.3 0 112.8 0C75.3 0 37.7 0 18.8 0L0 0Z" fill="#00b9fc"></path><path d="M0 92L18.8 91.7C37.7 91.3 75.3 90.7 112.8 95C150.3 99.3 187.7 108.7 225.2 114.5C262.7 120.3 300.3 122.7 337.8 121.2C375.3 119.7 412.7 114.3 450.2 108.3C487.7 102.3 525.3 95.7 562.8 98C600.3 100.3 637.7 111.7 675.2 118.3C712.7 125 750.3 127 787.8 120.3C825.3 113.7 862.7 98.3 881.3 90.7L900 83L900 0L881.3 0C862.7 0 825.3 0 787.8 0C750.3 0 712.7 0 675.2 0C637.7 0 600.3 0 562.8 0C525.3 0 487.7 0 450.2 0C412.7 0 375.3 0 337.8 0C300.3 0 262.7 0 225.2 0C187.7 0 150.3 0 112.8 0C75.3 0 37.7 0 18.8 0L0 0Z" fill="#0092e9"></path><path d="M0 85L18.8 85.7C37.7 86.3 75.3 87.7 112.8 86.3C150.3 85 187.7 81 225.2 75.3C262.7 69.7 300.3 62.3 337.8 58.3C375.3 54.3 412.7 53.7 450.2 58.2C487.7 62.7 525.3 72.3 562.8 73C600.3 73.7 637.7 65.3 675.2 65.7C712.7 66 750.3 75 787.8 74.3C825.3 73.7 862.7 63.3 881.3 58.2L900 53L900 0L881.3 0C862.7 0 825.3 0 787.8 0C750.3 0 712.7 0 675.2 0C637.7 0 600.3 0 562.8 0C525.3 0 487.7 0 450.2 0C412.7 0 375.3 0 337.8 0C300.3 0 262.7 0 225.2 0C187.7 0 150.3 0 112.8 0C75.3 0 37.7 0 18.8 0L0 0Z" fill="#006ad0"></path><path d="M0 30L18.8 34.8C37.7 39.7 75.3 49.3 112.8 50.3C150.3 51.3 187.7 43.7 225.2 42.8C262.7 42 300.3 48 337.8 46.5C375.3 45 412.7 36 450.2 32.8C487.7 29.7 525.3 32.3 562.8 32.7C600.3 33 637.7 31 675.2 34.5C712.7 38 750.3 47 787.8 51.8C825.3 56.7 862.7 57.3 881.3 57.7L900 58L900 0L881.3 0C862.7 0 825.3 0 787.8 0C750.3 0 712.7 0 675.2 0C637.7 0 600.3 0 562.8 0C525.3 0 487.7 0 450.2 0C412.7 0 375.3 0 337.8 0C300.3 0 262.7 0 225.2 0C187.7 0 150.3 0 112.8 0C75.3 0 37.7 0 18.8 0L0 0Z" fill="#1e40af"></path></svg>