<svg id="visual" viewBox="0 0 900 300" width="900" height="300" xmlns="http://www.w3.org/2000/svg" xmlns:xlink="http://www.w3.org/1999/xlink" version="1.1"><rect x="0" y="0" width="900" height="300" fill="#831843"></rect><path d="M0 89L18.8 87.5C37.7 86 75.3 83 112.8 81.2C150.3 79.3 187.7 78.7 225.2 68.2C262.7 57.7 300.3 37.3 337.8 36.2C375.3 35 412.7 53 450.2 53.2C487.7 53.3 525.3 35.7 562.8 29.3C600.3 23 637.7 28 675.2 37C712.7 46 750.3 59 787.8 58.7C825.3 58.3 862.7 44.7 881.3 37.8L900 31L900 301L881.3 301C862.7 301 825.3 301 787.8 301C750.3 301 712.7 301 675.2 301C637.7 301 600.3 301 562.8 301C525.3 301 487.7 301 450.2 301C412.7 301 375.3 301 337.8 301C300.3 301 262.7 301 225.2 301C187.7 301 150.3 301 112.8 301C75.3 301 37.7 301 18.8 301L0 301Z" fill="#f0c29c"></path><path d="M0 45L18.8 55C37.7 65 75.3 85 112.8 94C150.3 103 187.7 101 225.2 95.8C262.7 90.7 300.3 82.3 337.8 86.8C375.3 91.3 412.7 108.7 450.2 105.8C487.7 103 525.3 80 562.8 79C600.3 78 637.7 99 675.2 105.8C712.7 112.7 750.3 105.3 787.8 98.5C825.3 91.7 862.7 85.3 881.3 82.2L900 79L900 301L881.3 301C862.7 301 825.3 301 787.8 301C750.3 301 712.7 301 675.2 301C637.7 301 600.3 301 562.8 301C525.3 301 487.7 301 450.2 301C412.7 301 375.3 301 337.8 301C300.3 301 262.7 301 225.2 301C187.7 301 150.3 301 112.8 301C75.3 301 37.7 301 18.8 301L0 301Z" fill="#eda78b"></path><path d="M0 148L18.8 146.8C37.7 145.7 75.3 143.3 112.8 144.3C150.3 145.3 187.7 149.7 225.2 143.2C262.7 136.7 300.3 119.3 337.8 106.7C375.3 94 412.7 86 450.2 87.5C487.7 89 525.3 100 562.8 113C600.3 126 637.7 141 675.2 143.7C712.7 146.3 750.3 136.7 787.8 130C825.3 123.3 862.7 119.7 881.3 117.8L900 116L900 301L881.3 301C862.7 301 825.3 301 787.8 301C750.3 301 712.7 301 675.2 301C637.7 301 600.3 301 562.8 301C525.3 301 487.7 301 450.2 301C412.7 301 375.3 301 337.8 301C300.3 301 262.7 301 225.2 301C187.7 301 150.3 301 112.8 301C75.3 301 37.7 301 18.8 301L0 301Z" fill="#e88b83"></path><path d="M0 118L18.8 118.2C37.7 118.3 75.3 118.7 112.8 125.8C150.3 133 187.7 147 225.2 156.8C262.7 166.7 300.3 172.3 337.8 169.2C375.3 166 412.7 154 450.2 148.2C487.7 142.3 525.3 142.7 562.8 147.3C600.3 152 637.7 161 675.2 156C712.7 151 750.3 132 787.8 123.3C825.3 114.7 862.7 116.3 881.3 117.2L900 118L900 301L881.3 301C862.7 301 825.3 301 787.8 301C750.3 301 712.7 301 675.2 301C637.7 301 600.3 301 562.8 301C525.3 301 487.7 301 450.2 301C412.7 301 375.3 301 337.8 301C300.3 301 262.7 301 225.2 301C187.7 301 150.3 301 112.8 301C75.3 301 37.7 301 18.8 301L0 301Z" fill="#dc7085"></path><path d="M0 185L18.8 181.3C37.7 177.7 75.3 170.3 112.8 165.7C150.3 161 187.7 159 225.2 164.2C262.7 169.3 300.3 181.7 337.8 186.2C375.3 190.7 412.7 187.3 450.2 186C487.7 184.7 525.3 185.3 562.8 187.7C600.3 190 637.7 194 675.2 187C712.7 180 750.3 162 787.8 156.2C825.3 150.3 862.7 156.7 881.3 159.8L900 163L900 301L881.3 301C862.7 301 825.3 301 787.8 301C750.3 301 712.7 301 675.2 301C637.7 301 600.3 301 562.8 301C525.3 301 487.7 301 450.2 301C412.7 301 375.3 301 337.8 301C300.3 301 262.7 301 225.2 301C187.7 301 150.3 301 112.8 301C75.3 301 37.7 301 18.8 301L0 301Z" fill="#c9588d"></path><path d="M0 222L18.8 222C37.7 222 75.3 222 112.8 214.3C150.3 206.7 187.7 191.3 225.2 188.2C262.7 185 300.3 194 337.8 204.2C375.3 214.3 412.7 225.7 450.2 229.7C487.7 233.7 525.3 230.3 562.8 230.3C600.3 230.3 637.7 233.7 675.2 230C712.7 226.3 750.3 215.7 787.8 213.7C825.3 211.7 862.7 218.3 881.3 221.7L900 225L900 301L881.3 301C862.7 301 825.3 301 787.8 301C750.3 301 712.7 301 675.2 301C637.7 301 600.3 301 562.8 301C525.3 301 487.7 301 450.2 301C412.7 301 375.3 301 337.8 301C300.3 301 262.7 301 225.2 301C187.7 301 150.3 301 112.8 301C75.3 301 37.7 301 18.8 301L0 301Z" fill="#ab4799"></path><path d="M0 260L18.8 257.7C37.7 255.3 75.3 250.7 112.8 244.3C150.3 238 187.7 230 225.2 232.7C262.7 235.3 300.3 248.7 337.8 252.3C375.3 256 412.7 250 450.2 241.3C487.7 232.7 525.3 221.3 562.8 220.8C600.3 220.3 637.7 230.7 675.2 237.5C712.7 244.3 750.3 247.7 787.8 247.7C825.3 247.7 862.7 244.3 881.3 242.7L900 241L900 301L881.3 301C862.7 301 825.3 301 787.8 301C750.3 301 712.7 301 675.2 301C637.7 301 600.3 301 562.8 301C525.3 301 487.7 301 450.2 301C412.7 301 375.3 301 337.8 301C300.3 301 262.7 301 225.2 301C187.7 301 150.3 301 112.8 301C75.3 301 37.7 301 18.8 301L0 301Z" fill="#7c40a6"></path><path d="M0 278L18.8 277.2C37.7 276.3 75.3 274.7 112.8 271C150.3 267.3 187.7 261.7 225.2 262.5C262.7 263.3 300.3 270.7 337.8 275.7C375.3 280.7 412.7 283.3 450.2 280C487.7 276.7 525.3 267.3 562.8 259.7C600.3 252 637.7 246 675.2 247.2C712.7 248.3 750.3 256.7 787.8 260.3C825.3 264 862.7 263 881.3 262.5L900 262L900 301L881.3 301C862.7 301 825.3 301 787.8 301C750.3 301 712.7 301 675.2 301C637.7 301 600.3 301 562.8 301C525.3 301 487.7 301 450.2 301C412.7 301 375.3 301 337.8 301C300.3 301 262.7 301 225.2 301C187.7 301 150.3 301 112.8 301C75.3 301 37.7 301 18.8 301L0 301Z" fill="#1e40af"></path></svg>