<svg id="visual" viewBox="0 0 675 900" width="675" height="900" xmlns="http://www.w3.org/2000/svg" xmlns:xlink="http://www.w3.org/1999/xlink" version="1.1"><rect x="0" y="0" width="675" height="900" fill="#312E81"></rect><path d="M0 668L28.2 656.2C56.3 644.3 112.7 620.7 169 611.3C225.3 602 281.7 607 337.8 610.5C394 614 450 616 506.2 632.2C562.3 648.3 618.7 678.7 646.8 693.8L675 709L675 0L646.8 0C618.7 0 562.3 0 506.2 0C450 0 394 0 337.8 0C281.7 0 225.3 0 169 0C112.7 0 56.3 0 28.2 0L0 0Z" fill="#715df2"></path><path d="M0 573L28.2 582.3C56.3 591.7 112.7 610.3 169 624.8C225.3 639.3 281.7 649.7 337.8 643C394 636.3 450 612.7 506.2 591.3C562.3 570 618.7 551 646.8 541.5L675 532L675 0L646.8 0C618.7 0 562.3 0 506.2 0C450 0 394 0 337.8 0C281.7 0 225.3 0 169 0C112.7 0 56.3 0 28.2 0L0 0Z" fill="#8357e6"></path><path d="M0 538L28.2 523.8C56.3 509.7 112.7 481.3 169 483.8C225.3 486.3 281.7 519.7 337.8 539.8C394 560 450 567 506.2 552C562.3 537 618.7 500 646.8 481.5L675 463L675 0L646.8 0C618.7 0 562.3 0 506.2 0C450 0 394 0 337.8 0C281.7 0 225.3 0 169 0C112.7 0 56.3 0 28.2 0L0 0Z" fill="#9150db"></path><path d="M0 420L28.2 428C56.3 436 112.7 452 169 466.3C225.3 480.7 281.7 493.3 337.8 501.8C394 510.3 450 514.7 506.2 510C562.3 505.3 618.7 491.7 646.8 484.8L675 478L675 0L646.8 0C618.7 0 562.3 0 506.2 0C450 0 394 0 337.8 0C281.7 0 225.3 0 169 0C112.7 0 56.3 0 28.2 0L0 0Z" fill="#9b4acf"></path><path d="M0 349L28.2 361C56.3 373 112.7 397 169 405.2C225.3 413.3 281.7 405.7 337.8 394C394 382.3 450 366.7 506.2 359.3C562.3 352 618.7 353 646.8 353.5L675 354L675 0L646.8 0C618.7 0 562.3 0 506.2 0C450 0 394 0 337.8 0C281.7 0 225.3 0 169 0C112.7 0 56.3 0 28.2 0L0 0Z" fill="#a445c4"></path><path d="M0 309L28.2 325.2C56.3 341.3 112.7 373.7 169 379.2C225.3 384.7 281.7 363.3 337.8 353.5C394 343.7 450 345.3 506.2 351C562.3 356.7 618.7 366.3 646.8 371.2L675 376L675 0L646.8 0C618.7 0 562.3 0 506.2 0C450 0 394 0 337.8 0C281.7 0 225.3 0 169 0C112.7 0 56.3 0 28.2 0L0 0Z" fill="#aa40b8"></path><path d="M0 259L28.2 265.2C56.3 271.3 112.7 283.7 169 295.7C225.3 307.7 281.7 319.3 337.8 326.2C394 333 450 335 506.2 329.2C562.3 323.3 618.7 309.7 646.8 302.8L675 296L675 0L646.8 0C618.7 0 562.3 0 506.2 0C450 0 394 0 337.8 0C281.7 0 225.3 0 169 0C112.7 0 56.3 0 28.2 0L0 0Z" fill="#af3cad"></path><path d="M0 199L28.2 211.7C56.3 224.3 112.7 249.7 169 252C225.3 254.3 281.7 233.7 337.8 230.7C394 227.7 450 242.3 506.2 238.8C562.3 235.3 618.7 213.7 646.8 202.8L675 192L675 0L646.8 0C618.7 0 562.3 0 506.2 0C450 0 394 0 337.8 0C281.7 0 225.3 0 169 0C112.7 0 56.3 0 28.2 0L0 0Z" fill="#b239a2"></path><path d="M0 169L28.2 172C56.3 175 112.7 181 169 186.8C225.3 192.7 281.7 198.3 337.8 190.7C394 183 450 162 506.2 156C562.3 150 618.7 159 646.8 163.5L675 168L675 0L646.8 0C618.7 0 562.3 0 506.2 0C450 0 394 0 337.8 0C281.7 0 225.3 0 169 0C112.7 0 56.3 0 28.2 0L0 0Z" fill="#b33698"></path><path d="M0 88L28.2 91C56.3 94 112.7 100 169 102.7C225.3 105.3 281.7 104.7 337.8 104.5C394 104.3 450 104.7 506.2 111.7C562.3 118.7 618.7 132.3 646.8 139.2L675 146L675 0L646.8 0C618.7 0 562.3 0 506.2 0C450 0 394 0 337.8 0C281.7 0 225.3 0 169 0C112.7 0 56.3 0 28.2 0L0 0Z" fill="#b4358e"></path><path d="M0 86L28.2 84C56.3 82 112.7 78 169 76.8C225.3 75.7 281.7 77.3 337.8 70.7C394 64 450 49 506.2 42.5C562.3 36 618.7 38 646.8 39L675 40L675 0L646.8 0C618.7 0 562.3 0 506.2 0C450 0 394 0 337.8 0C281.7 0 225.3 0 169 0C112.7 0 56.3 0 28.2 0L0 0Z" fill="#b43484"></path></svg>