<svg id="visual" viewBox="0 0 900 300" width="900" height="300" xmlns="http://www.w3.org/2000/svg" xmlns:xlink="http://www.w3.org/1999/xlink" version="1.1"><path d="M0 34L18.8 31.5C37.7 29 75.3 24 112.8 27C150.3 30 187.7 41 225.2 43C262.7 45 300.3 38 337.8 33.5C375.3 29 412.7 27 450.2 25.5C487.7 24 525.3 23 562.8 22C600.3 21 637.7 20 675.2 24C712.7 28 750.3 37 787.8 42.5C825.3 48 862.7 50 881.3 51L900 52L900 0L881.3 0C862.7 0 825.3 0 787.8 0C750.3 0 712.7 0 675.2 0C637.7 0 600.3 0 562.8 0C525.3 0 487.7 0 450.2 0C412.7 0 375.3 0 337.8 0C300.3 0 262.7 0 225.2 0C187.7 0 150.3 0 112.8 0C75.3 0 37.7 0 18.8 0L0 0Z" fill="#3b82f6"></path><path d="M0 97L18.8 91.5C37.7 86 75.3 75 112.8 76.5C150.3 78 187.7 92 225.2 93C262.7 94 300.3 82 337.8 79.5C375.3 77 412.7 84 450.2 80C487.7 76 525.3 61 562.8 58.5C600.3 56 637.7 66 675.2 75.5C712.7 85 750.3 94 787.8 99.5C825.3 105 862.7 107 881.3 108L900 109L900 50L881.3 49C862.7 48 825.3 46 787.8 40.5C750.3 35 712.7 26 675.2 22C637.7 18 600.3 19 562.8 20C525.3 21 487.7 22 450.2 23.5C412.7 25 375.3 27 337.8 31.5C300.3 36 262.7 43 225.2 41C187.7 39 150.3 28 112.8 25C75.3 22 37.7 27 18.8 29.5L0 32Z" fill="#009cf6"></path><path d="M0 148L18.8 139.5C37.7 131 75.3 114 112.8 115C150.3 116 187.7 135 225.2 138C262.7 141 300.3 128 337.8 121.5C375.3 115 412.7 115 450.2 115.5C487.7 116 525.3 117 562.8 121C600.3 125 637.7 132 675.2 138.5C712.7 145 750.3 151 787.8 156C825.3 161 862.7 165 881.3 167L900 169L900 107L881.3 106C862.7 105 825.3 103 787.8 97.5C750.3 92 712.7 83 675.2 73.5C637.7 64 600.3 54 562.8 56.5C525.3 59 487.7 74 450.2 78C412.7 82 375.3 75 337.8 77.5C300.3 80 262.7 92 225.2 91C187.7 90 150.3 76 112.8 74.5C75.3 73 37.7 84 18.8 89.5L0 95Z" fill="#00b0ed"></path><path d="M0 220L18.8 214.5C37.7 209 75.3 198 112.8 203C150.3 208 187.7 229 225.2 230C262.7 231 300.3 212 337.8 212C375.3 212 412.7 231 450.2 238C487.7 245 525.3 240 562.8 234.5C600.3 229 637.7 223 675.2 223C712.7 223 750.3 229 787.8 228C825.3 227 862.7 219 881.3 215L900 211L900 167L881.3 165C862.7 163 825.3 159 787.8 154C750.3 149 712.7 143 675.2 136.5C637.7 130 600.3 123 562.8 119C525.3 115 487.7 114 450.2 113.5C412.7 113 375.3 113 337.8 119.5C300.3 126 262.7 139 225.2 136C187.7 133 150.3 114 112.8 113C75.3 112 37.7 129 18.8 137.5L0 146Z" fill="#16c0dd"></path><path d="M0 301L18.8 301C37.7 301 75.3 301 112.8 301C150.3 301 187.7 301 225.2 301C262.7 301 300.3 301 337.8 301C375.3 301 412.7 301 450.2 301C487.7 301 525.3 301 562.8 301C600.3 301 637.7 301 675.2 301C712.7 301 750.3 301 787.8 301C825.3 301 862.7 301 881.3 301L900 301L900 209L881.3 213C862.7 217 825.3 225 787.8 226C750.3 227 712.7 221 675.2 221C637.7 221 600.3 227 562.8 232.5C525.3 238 487.7 243 450.2 236C412.7 229 375.3 210 337.8 210C300.3 210 262.7 229 225.2 228C187.7 227 150.3 206 112.8 201C75.3 196 37.7 207 18.8 212.5L0 218Z" fill="#5bccca"></path></svg>