<svg id="visual" viewBox="0 0 675 900" width="675" height="900" xmlns="http://www.w3.org/2000/svg" xmlns:xlink="http://www.w3.org/1999/xlink" version="1.1"><path d="M0 154L28.2 155.5C56.3 157 112.7 160 169 145C225.3 130 281.7 97 337.8 101.5C394 106 450 148 506.2 167.5C562.3 187 618.7 184 646.8 182.5L675 181L675 0L646.8 0C618.7 0 562.3 0 506.2 0C450 0 394 0 337.8 0C281.7 0 225.3 0 169 0C112.7 0 56.3 0 28.2 0L0 0Z" fill="#3b82f6"></path><path d="M0 262L28.2 266.5C56.3 271 112.7 280 169 286C225.3 292 281.7 295 337.8 311.5C394 328 450 358 506.2 371.5C562.3 385 618.7 382 646.8 380.5L675 379L675 179L646.8 180.5C618.7 182 562.3 185 506.2 165.5C450 146 394 104 337.8 99.5C281.7 95 225.3 128 169 143C112.7 158 56.3 155 28.2 153.5L0 152Z" fill="#0091f8"></path><path d="M0 343L28.2 338.5C56.3 334 112.7 325 169 331C225.3 337 281.7 358 337.8 380.5C394 403 450 427 506.2 440.5C562.3 454 618.7 457 646.8 458.5L675 460L675 377L646.8 378.5C618.7 380 562.3 383 506.2 369.5C450 356 394 326 337.8 309.5C281.7 293 225.3 290 169 284C112.7 278 56.3 269 28.2 264.5L0 260Z" fill="#009ff5"></path><path d="M0 595L28.2 584.5C56.3 574 112.7 553 169 560.5C225.3 568 281.7 604 337.8 617.5C394 631 450 622 506.2 613C562.3 604 618.7 595 646.8 590.5L675 586L675 458L646.8 456.5C618.7 455 562.3 452 506.2 438.5C450 425 394 401 337.8 378.5C281.7 356 225.3 335 169 329C112.7 323 56.3 332 28.2 336.5L0 341Z" fill="#00abf0"></path><path d="M0 649L28.2 640C56.3 631 112.7 613 169 620.5C225.3 628 281.7 661 337.8 671.5C394 682 450 670 506.2 664C562.3 658 618.7 658 646.8 658L675 658L675 584L646.8 588.5C618.7 593 562.3 602 506.2 611C450 620 394 629 337.8 615.5C281.7 602 225.3 566 169 558.5C112.7 551 56.3 572 28.2 582.5L0 593Z" fill="#00b5ea"></path><path d="M0 739L28.2 733C56.3 727 112.7 715 169 718C225.3 721 281.7 739 337.8 751C394 763 450 769 506.2 767.5C562.3 766 618.7 757 646.8 752.5L675 748L675 656L646.8 656C618.7 656 562.3 656 506.2 662C450 668 394 680 337.8 669.5C281.7 659 225.3 626 169 618.5C112.7 611 56.3 629 28.2 638L0 647Z" fill="#04bee0"></path><path d="M0 811L28.2 811C56.3 811 112.7 811 169 818.5C225.3 826 281.7 841 337.8 845.5C394 850 450 844 506.2 841C562.3 838 618.7 838 646.8 838L675 838L675 746L646.8 750.5C618.7 755 562.3 764 506.2 765.5C450 767 394 761 337.8 749C281.7 737 225.3 719 169 716C112.7 713 56.3 725 28.2 731L0 737Z" fill="#38c6d5"></path><path d="M0 901L28.2 901C56.3 901 112.7 901 169 901C225.3 901 281.7 901 337.8 901C394 901 450 901 506.2 901C562.3 901 618.7 901 646.8 901L675 901L675 836L646.8 836C618.7 836 562.3 836 506.2 839C450 842 394 848 337.8 843.5C281.7 839 225.3 824 169 816.5C112.7 809 56.3 809 28.2 809L0 809Z" fill="#5bccca"></path></svg>