<svg id="visual" viewBox="0 0 675 900" width="675" height="900" xmlns="http://www.w3.org/2000/svg" xmlns:xlink="http://www.w3.org/1999/xlink" version="1.1"><path d="M0 55L28.2 67C56.3 79 112.7 103 169 116.5C225.3 130 281.7 133 337.8 122.5C394 112 450 88 506.2 77.5C562.3 67 618.7 70 646.8 71.5L675 73L675 0L646.8 0C618.7 0 562.3 0 506.2 0C450 0 394 0 337.8 0C281.7 0 225.3 0 169 0C112.7 0 56.3 0 28.2 0L0 0Z" fill="#411582"></path><path d="M0 136L28.2 145C56.3 154 112.7 172 169 182.5C225.3 193 281.7 196 337.8 184C394 172 450 145 506.2 130C562.3 115 618.7 112 646.8 110.5L675 109L675 71L646.8 69.5C618.7 68 562.3 65 506.2 75.5C450 86 394 110 337.8 120.5C281.7 131 225.3 128 169 114.5C112.7 101 56.3 77 28.2 65L0 53Z" fill="#571583"></path><path d="M0 199L28.2 217C56.3 235 112.7 271 169 280C225.3 289 281.7 271 337.8 245.5C394 220 450 187 506.2 175C562.3 163 618.7 172 646.8 176.5L675 181L675 107L646.8 108.5C618.7 110 562.3 113 506.2 128C450 143 394 170 337.8 182C281.7 194 225.3 191 169 180.5C112.7 170 56.3 152 28.2 143L0 134Z" fill="#6a1784"></path><path d="M0 388L28.2 403C56.3 418 112.7 448 169 446.5C225.3 445 281.7 412 337.8 371.5C394 331 450 283 506.2 274C562.3 265 618.7 295 646.8 310L675 325L675 179L646.8 174.5C618.7 170 562.3 161 506.2 173C450 185 394 218 337.8 243.5C281.7 269 225.3 287 169 278C112.7 269 56.3 233 28.2 215L0 197Z" fill="#7b1a84"></path><path d="M0 442L28.2 455.5C56.3 469 112.7 496 169 494.5C225.3 493 281.7 463 337.8 428.5C394 394 450 355 506.2 350.5C562.3 346 618.7 376 646.8 391L675 406L675 323L646.8 308C618.7 293 562.3 263 506.2 272C450 281 394 329 337.8 369.5C281.7 410 225.3 443 169 444.5C112.7 446 56.3 416 28.2 401L0 386Z" fill="#8b1f84"></path><path d="M0 496L28.2 506.5C56.3 517 112.7 538 169 542.5C225.3 547 281.7 535 337.8 511C394 487 450 451 506.2 448C562.3 445 618.7 475 646.8 490L675 505L675 404L646.8 389C618.7 374 562.3 344 506.2 348.5C450 353 394 392 337.8 426.5C281.7 461 225.3 491 169 492.5C112.7 494 56.3 467 28.2 453.5L0 440Z" fill="#992584"></path><path d="M0 757L28.2 754C56.3 751 112.7 745 169 754C225.3 763 281.7 787 337.8 793C394 799 450 787 506.2 763C562.3 739 618.7 703 646.8 685L675 667L675 503L646.8 488C618.7 473 562.3 443 506.2 446C450 449 394 485 337.8 509C281.7 533 225.3 545 169 540.5C112.7 536 56.3 515 28.2 504.5L0 494Z" fill="#a72c84"></path><path d="M0 901L28.2 901C56.3 901 112.7 901 169 901C225.3 901 281.7 901 337.8 901C394 901 450 901 506.2 901C562.3 901 618.7 901 646.8 901L675 901L675 665L646.8 683C618.7 701 562.3 737 506.2 761C450 785 394 797 337.8 791C281.7 785 225.3 761 169 752C112.7 743 56.3 749 28.2 752L0 755Z" fill="#b43484"></path></svg>