<svg id="visual" viewBox="0 0 900 300" width="900" height="300" xmlns="http://www.w3.org/2000/svg" xmlns:xlink="http://www.w3.org/1999/xlink" version="1.1"><rect x="0" y="0" width="900" height="300" fill="#100748"></rect><path d="M0 75L30 81.2C60 87.3 120 99.7 180 101C240 102.3 300 92.7 360 84.8C420 77 480 71 540 74.7C600 78.3 660 91.7 720 95.5C780 99.3 840 93.7 870 90.8L900 88L900 301L870 301C840 301 780 301 720 301C660 301 600 301 540 301C480 301 420 301 360 301C300 301 240 301 180 301C120 301 60 301 30 301L0 301Z" fill="#ea6181"></path><path d="M0 132L30 131.7C60 131.3 120 130.7 180 130.7C240 130.7 300 131.3 360 126.5C420 121.7 480 111.3 540 110C600 108.7 660 116.3 720 123.3C780 130.3 840 136.7 870 139.8L900 143L900 301L870 301C840 301 780 301 720 301C660 301 600 301 540 301C480 301 420 301 360 301C300 301 240 301 180 301C120 301 60 301 30 301L0 301Z" fill="#d24881"></path><path d="M0 131L30 136.5C60 142 120 153 180 159.8C240 166.7 300 169.3 360 170.7C420 172 480 172 540 170.8C600 169.7 660 167.3 720 168.8C780 170.3 840 175.7 870 178.3L900 181L900 301L870 301C840 301 780 301 720 301C660 301 600 301 540 301C480 301 420 301 360 301C300 301 240 301 180 301C120 301 60 301 30 301L0 301Z" fill="#b73282"></path><path d="M0 171L30 174.7C60 178.3 120 185.7 180 191.3C240 197 300 201 360 202.5C420 204 480 203 540 203.3C600 203.7 660 205.3 720 202.3C780 199.3 840 191.7 870 187.8L900 184L900 301L870 301C840 301 780 301 720 301C660 301 600 301 540 301C480 301 420 301 360 301C300 301 240 301 180 301C120 301 60 301 30 301L0 301Z" fill="#962183"></path><path d="M0 246L30 245.3C60 244.7 120 243.3 180 241C240 238.7 300 235.3 360 229.5C420 223.7 480 215.3 540 215.5C600 215.7 660 224.3 720 230.5C780 236.7 840 240.3 870 242.2L900 244L900 301L870 301C840 301 780 301 720 301C660 301 600 301 540 301C480 301 420 301 360 301C300 301 240 301 180 301C120 301 60 301 30 301L0 301Z" fill="#711784"></path><path d="M0 268L30 269C60 270 120 272 180 270.7C240 269.3 300 264.7 360 259.5C420 254.3 480 248.7 540 247.2C600 245.7 660 248.3 720 252.7C780 257 840 263 870 266L900 269L900 301L870 301C840 301 780 301 720 301C660 301 600 301 540 301C480 301 420 301 360 301C300 301 240 301 180 301C120 301 60 301 30 301L0 301Z" fill="#411582"></path></svg>