<svg id="visual" viewBox="0 0 900 300" width="900" height="300" xmlns="http://www.w3.org/2000/svg" xmlns:xlink="http://www.w3.org/1999/xlink" version="1.1"><path d="M0 64L18.8 65C37.7 66 75.3 68 112.8 63.5C150.3 59 187.7 48 225.2 58.5C262.7 69 300.3 101 337.8 110C375.3 119 412.7 105 450.2 92C487.7 79 525.3 67 562.8 62C600.3 57 637.7 59 675.2 65C712.7 71 750.3 81 787.8 81.5C825.3 82 862.7 73 881.3 68.5L900 64L900 0L881.3 0C862.7 0 825.3 0 787.8 0C750.3 0 712.7 0 675.2 0C637.7 0 600.3 0 562.8 0C525.3 0 487.7 0 450.2 0C412.7 0 375.3 0 337.8 0C300.3 0 262.7 0 225.2 0C187.7 0 150.3 0 112.8 0C75.3 0 37.7 0 18.8 0L0 0Z" fill="#411582"></path><path d="M0 82L18.8 84.5C37.7 87 75.3 92 112.8 91C150.3 90 187.7 83 225.2 91.5C262.7 100 300.3 124 337.8 133C375.3 142 412.7 136 450.2 126.5C487.7 117 525.3 104 562.8 98.5C600.3 93 637.7 95 675.2 99C712.7 103 750.3 109 787.8 110C825.3 111 862.7 107 881.3 105L900 103L900 62L881.3 66.5C862.7 71 825.3 80 787.8 79.5C750.3 79 712.7 69 675.2 63C637.7 57 600.3 55 562.8 60C525.3 65 487.7 77 450.2 90C412.7 103 375.3 117 337.8 108C300.3 99 262.7 67 225.2 56.5C187.7 46 150.3 57 112.8 61.5C75.3 66 37.7 64 18.8 63L0 62Z" fill="#5a1583"></path><path d="M0 124L18.8 125.5C37.7 127 75.3 130 112.8 128.5C150.3 127 187.7 121 225.2 131C262.7 141 300.3 167 337.8 175C375.3 183 412.7 173 450.2 162.5C487.7 152 525.3 141 562.8 132.5C600.3 124 637.7 118 675.2 120C712.7 122 750.3 132 787.8 133.5C825.3 135 862.7 128 881.3 124.5L900 121L900 101L881.3 103C862.7 105 825.3 109 787.8 108C750.3 107 712.7 101 675.2 97C637.7 93 600.3 91 562.8 96.5C525.3 102 487.7 115 450.2 124.5C412.7 134 375.3 140 337.8 131C300.3 122 262.7 98 225.2 89.5C187.7 81 150.3 88 112.8 89C75.3 90 37.7 85 18.8 82.5L0 80Z" fill="#701884"></path><path d="M0 187L18.8 190C37.7 193 75.3 199 112.8 203.5C150.3 208 187.7 211 225.2 217C262.7 223 300.3 232 337.8 234.5C375.3 237 412.7 233 450.2 226C487.7 219 525.3 209 562.8 201.5C600.3 194 637.7 189 675.2 192.5C712.7 196 750.3 208 787.8 209.5C825.3 211 862.7 202 881.3 197.5L900 193L900 119L881.3 122.5C862.7 126 825.3 133 787.8 131.5C750.3 130 712.7 120 675.2 118C637.7 116 600.3 122 562.8 130.5C525.3 139 487.7 150 450.2 160.5C412.7 171 375.3 181 337.8 173C300.3 165 262.7 139 225.2 129C187.7 119 150.3 125 112.8 126.5C75.3 128 37.7 125 18.8 123.5L0 122Z" fill="#831c84"></path><path d="M0 250L18.8 250C37.7 250 75.3 250 112.8 250.5C150.3 251 187.7 252 225.2 254.5C262.7 257 300.3 261 337.8 260.5C375.3 260 412.7 255 450.2 250C487.7 245 525.3 240 562.8 239.5C600.3 239 637.7 243 675.2 246.5C712.7 250 750.3 253 787.8 252.5C825.3 252 862.7 248 881.3 246L900 244L900 191L881.3 195.5C862.7 200 825.3 209 787.8 207.5C750.3 206 712.7 194 675.2 190.5C637.7 187 600.3 192 562.8 199.5C525.3 207 487.7 217 450.2 224C412.7 231 375.3 235 337.8 232.5C300.3 230 262.7 221 225.2 215C187.7 209 150.3 206 112.8 201.5C75.3 197 37.7 191 18.8 188L0 185Z" fill="#952284"></path><path d="M0 268L18.8 270C37.7 272 75.3 276 112.8 279C150.3 282 187.7 284 225.2 285.5C262.7 287 300.3 288 337.8 286.5C375.3 285 412.7 281 450.2 277.5C487.7 274 525.3 271 562.8 270C600.3 269 637.7 270 675.2 273.5C712.7 277 750.3 283 787.8 283C825.3 283 862.7 277 881.3 274L900 271L900 242L881.3 244C862.7 246 825.3 250 787.8 250.5C750.3 251 712.7 248 675.2 244.5C637.7 241 600.3 237 562.8 237.5C525.3 238 487.7 243 450.2 248C412.7 253 375.3 258 337.8 258.5C300.3 259 262.7 255 225.2 252.5C187.7 250 150.3 249 112.8 248.5C75.3 248 37.7 248 18.8 248L0 248Z" fill="#a52b84"></path><path d="M0 301L18.8 301C37.7 301 75.3 301 112.8 301C150.3 301 187.7 301 225.2 301C262.7 301 300.3 301 337.8 301C375.3 301 412.7 301 450.2 301C487.7 301 525.3 301 562.8 301C600.3 301 637.7 301 675.2 301C712.7 301 750.3 301 787.8 301C825.3 301 862.7 301 881.3 301L900 301L900 269L881.3 272C862.7 275 825.3 281 787.8 281C750.3 281 712.7 275 675.2 271.5C637.7 268 600.3 267 562.8 268C525.3 269 487.7 272 450.2 275.5C412.7 279 375.3 283 337.8 284.5C300.3 286 262.7 285 225.2 283.5C187.7 282 150.3 280 112.8 277C75.3 274 37.7 270 18.8 268L0 266Z" fill="#b43484"></path></svg>